<?xml version="1.0" encoding="us-ascii" standalone="no"?><svg xmlns="http://www.w3.org/2000/svg" xmlns:xlink="http://www.w3.org/1999/xlink" contentStyleType="text/css" height="451px" preserveAspectRatio="none" style="width:1010px;height:451px;background:#FFFFFF;" version="1.1" viewBox="0 0 1010 451" width="1010px" zoomAndPan="magnify"><defs/><g><g id="elem_Mastermind"><rect fill="#F1F1F1" height="37.6094" style="stroke:#181818;stroke-width:0.5;" width="91" x="429.5" y="7"/><text fill="#000000" font-family="sans-serif" font-size="14" lengthAdjust="spacing" textLength="77" x="436.5" y="23.5332">:Mastermind</text><line style="stroke:#181818;stroke-width:0.5;" x1="430.5" x2="519.5" y1="28.6094" y2="28.6094"/></g><g id="elem_Board"><rect fill="#F1F1F1" height="47.2188" style="stroke:#181818;stroke-width:0.5;" width="90" x="430" y="105"/><text fill="#000000" font-family="sans-serif" font-size="14" lengthAdjust="spacing" textLength="42" x="454" y="121.5332">:Board</text><line style="stroke:#181818;stroke-width:0.5;" x1="431" x2="519" y1="126.6094" y2="126.6094"/><text fill="#000000" font-family="sans-serif" font-size="14" lengthAdjust="spacing" textLength="78" x="436" y="145.1426">attempts = 5</text></g><g id="elem_SecretCombination"><rect fill="#F1F1F1" height="37.6094" style="stroke:#181818;stroke-width:0.5;" width="138" x="406" y="212"/><text fill="#000000" font-family="sans-serif" font-size="14" lengthAdjust="spacing" textLength="124" x="413" y="228.5332">:SecretCombination</text><line style="stroke:#181818;stroke-width:0.5;" x1="407" x2="543" y1="233.6094" y2="233.6094"/></g><g id="elem_ProposedCombination1"><rect fill="#F1F1F1" height="37.6094" style="stroke:#181818;stroke-width:0.5;" width="158" x="71" y="212"/><text fill="#000000" font-family="sans-serif" font-size="14" lengthAdjust="spacing" textLength="144" x="78" y="228.5332">:ProposedCombination</text><line style="stroke:#181818;stroke-width:0.5;" x1="72" x2="228" y1="233.6094" y2="233.6094"/></g><g id="elem_ProposedCombination2"><rect fill="#F1F1F1" height="37.6094" style="stroke:#181818;stroke-width:0.5;" width="158" x="705" y="212"/><text fill="#000000" font-family="sans-serif" font-size="14" lengthAdjust="spacing" textLength="144" x="712" y="228.5332">:ProposedCombination</text><line style="stroke:#181818;stroke-width:0.5;" x1="706" x2="862" y1="233.6094" y2="233.6094"/></g><g id="elem_Color1"><rect fill="#F1F1F1" height="37.6094" style="stroke:#181818;stroke-width:0.5;" width="52" x="7" y="310"/><text fill="#000000" font-family="sans-serif" font-size="14" lengthAdjust="spacing" textLength="38" x="14" y="326.5332">:Color</text><line style="stroke:#181818;stroke-width:0.5;" x1="8" x2="58" y1="331.6094" y2="331.6094"/></g><g id="elem_Color2"><rect fill="#F1F1F1" height="37.6094" style="stroke:#181818;stroke-width:0.5;" width="52" x="114" y="310"/><text fill="#000000" font-family="sans-serif" font-size="14" lengthAdjust="spacing" textLength="38" x="121" y="326.5332">:Color</text><line style="stroke:#181818;stroke-width:0.5;" x1="115" x2="165" y1="331.6094" y2="331.6094"/></g><g id="elem_Color3"><rect fill="#F1F1F1" height="37.6094" style="stroke:#181818;stroke-width:0.5;" width="52" x="670" y="310"/><text fill="#000000" font-family="sans-serif" font-size="14" lengthAdjust="spacing" textLength="38" x="677" y="326.5332">:Color</text><line style="stroke:#181818;stroke-width:0.5;" x1="671" x2="721" y1="331.6094" y2="331.6094"/></g><g id="elem_Color4"><rect fill="#F1F1F1" height="37.6094" style="stroke:#181818;stroke-width:0.5;" width="52" x="757" y="310"/><text fill="#000000" font-family="sans-serif" font-size="14" lengthAdjust="spacing" textLength="38" x="764" y="326.5332">:Color</text><line style="stroke:#181818;stroke-width:0.5;" x1="758" x2="808" y1="331.6094" y2="331.6094"/></g><g id="elem_Color5"><rect fill="#F1F1F1" height="37.6094" style="stroke:#181818;stroke-width:0.5;" width="52" x="417" y="310"/><text fill="#000000" font-family="sans-serif" font-size="14" lengthAdjust="spacing" textLength="38" x="424" y="326.5332">:Color</text><line style="stroke:#181818;stroke-width:0.5;" x1="418" x2="468" y1="331.6094" y2="331.6094"/></g><g id="elem_Color6"><rect fill="#F1F1F1" height="37.6094" style="stroke:#181818;stroke-width:0.5;" width="52" x="504" y="310"/><text fill="#000000" font-family="sans-serif" font-size="14" lengthAdjust="spacing" textLength="38" x="511" y="326.5332">:Color</text><line style="stroke:#181818;stroke-width:0.5;" x1="505" x2="555" y1="331.6094" y2="331.6094"/></g><g id="elem_Result1"><rect fill="#F1F1F1" height="37.6094" style="stroke:#181818;stroke-width:0.5;" width="58" x="324" y="310"/><text fill="#000000" font-family="sans-serif" font-size="14" lengthAdjust="spacing" textLength="44" x="331" y="326.5332">:Result</text><line style="stroke:#181818;stroke-width:0.5;" x1="325" x2="381" y1="331.6094" y2="331.6094"/></g><g id="elem_Result2"><rect fill="#F1F1F1" height="37.6094" style="stroke:#181818;stroke-width:0.5;" width="58" x="865" y="310"/><text fill="#000000" font-family="sans-serif" font-size="14" lengthAdjust="spacing" textLength="44" x="872" y="326.5332">:Result</text><line style="stroke:#181818;stroke-width:0.5;" x1="866" x2="922" y1="331.6094" y2="331.6094"/></g><g id="elem_White1"><rect fill="#F1F1F1" height="37.6094" style="stroke:#181818;stroke-width:0.5;" width="54" x="327" y="408"/><text fill="#000000" font-family="sans-serif" font-size="14" lengthAdjust="spacing" textLength="40" x="334" y="424.5332">:White</text><line style="stroke:#181818;stroke-width:0.5;" x1="328" x2="380" y1="429.6094" y2="429.6094"/></g><g id="elem_Black1"><rect fill="#F1F1F1" height="37.6094" style="stroke:#181818;stroke-width:0.5;" width="52" x="545" y="408"/><text fill="#000000" font-family="sans-serif" font-size="14" lengthAdjust="spacing" textLength="38" x="552" y="424.5332">:Black</text><line style="stroke:#181818;stroke-width:0.5;" x1="546" x2="596" y1="429.6094" y2="429.6094"/></g><g id="elem_Black2"><rect fill="#F1F1F1" height="37.6094" style="stroke:#181818;stroke-width:0.5;" width="52" x="952" y="408"/><text fill="#000000" font-family="sans-serif" font-size="14" lengthAdjust="spacing" textLength="38" x="959" y="424.5332">:Black</text><line style="stroke:#181818;stroke-width:0.5;" x1="953" x2="1003" y1="429.6094" y2="429.6094"/></g><g id="elem_White3"><rect fill="#F1F1F1" height="37.6094" style="stroke:#181818;stroke-width:0.5;" width="54" x="238" y="408"/><text fill="#000000" font-family="sans-serif" font-size="14" lengthAdjust="spacing" textLength="40" x="245" y="424.5332">:White</text><line style="stroke:#181818;stroke-width:0.5;" x1="239" x2="291" y1="429.6094" y2="429.6094"/></g><g id="elem_Black3"><rect fill="#F1F1F1" height="37.6094" style="stroke:#181818;stroke-width:0.5;" width="52" x="437" y="408"/><text fill="#000000" font-family="sans-serif" font-size="14" lengthAdjust="spacing" textLength="38" x="444" y="424.5332">:Black</text><line style="stroke:#181818;stroke-width:0.5;" x1="438" x2="488" y1="429.6094" y2="429.6094"/></g><g id="elem_Black4"><rect fill="#F1F1F1" height="37.6094" style="stroke:#181818;stroke-width:0.5;" width="52" x="865" y="408"/><text fill="#000000" font-family="sans-serif" font-size="14" lengthAdjust="spacing" textLength="38" x="872" y="424.5332">:Black</text><line style="stroke:#181818;stroke-width:0.5;" x1="866" x2="916" y1="429.6094" y2="429.6094"/></g><g id="elem_proposedCombinations"><path d="M170.5,115.5 L170.5,141.8516 L261.5,141.8516 L261.5,125.5 L251.5,115.5 L170.5,115.5 " fill="#FEFFDD" style="stroke:#181818;stroke-width:0.5;"/><path d="M251.5,115.5 L251.5,125.5 L261.5,125.5 L251.5,115.5 " fill="#FEFFDD" style="stroke:#181818;stroke-width:1.0;"/><text fill="#000000" font-family="sans-serif" font-size="13" lengthAdjust="spacing" textLength="70" x="176.5" y="133.9951">attempts - 1</text></g><g id="elem_winnerBlacks"><path d="M962,316 L962,342.3516 L990,342.3516 L990,326 L980,316 L962,316 " fill="#FEFFDD" style="stroke:#181818;stroke-width:0.5;"/><path d="M980,316 L980,326 L990,326 L980,316 " fill="#FEFFDD" style="stroke:#181818;stroke-width:1.0;"/><text fill="#000000" font-family="sans-serif" font-size="13" lengthAdjust="spacing" textLength="7" x="968" y="334.4951">4</text></g><g id="elem_loserBlacks"><path d="M591.5,316 L591.5,342.3516 L634.5,342.3516 L634.5,326 L624.5,316 L591.5,316 " fill="#FEFFDD" style="stroke:#181818;stroke-width:0.5;"/><path d="M624.5,316 L624.5,326 L634.5,326 L624.5,316 " fill="#FEFFDD" style="stroke:#181818;stroke-width:1.0;"/><text fill="#000000" font-family="sans-serif" font-size="13" lengthAdjust="spacing" textLength="22" x="597.5" y="334.4951">0..3</text></g><g id="elem_loserWhites"><path d="M244.5,316 L244.5,342.3516 L287.5,342.3516 L287.5,326 L277.5,316 L244.5,316 " fill="#FEFFDD" style="stroke:#181818;stroke-width:0.5;"/><path d="M277.5,316 L277.5,326 L287.5,326 L277.5,316 " fill="#FEFFDD" style="stroke:#181818;stroke-width:1.0;"/><text fill="#000000" font-family="sans-serif" font-size="13" lengthAdjust="spacing" textLength="22" x="250.5" y="334.4951">0..4</text></g><g id="elem_colors1"><path d="M8,218 L8,244.3516 L36,244.3516 L36,228 L26,218 L8,218 " fill="#FEFFDD" style="stroke:#181818;stroke-width:0.5;"/><path d="M26,218 L26,228 L36,228 L26,218 " fill="#FEFFDD" style="stroke:#181818;stroke-width:1.0;"/><text fill="#000000" font-family="sans-serif" font-size="13" lengthAdjust="spacing" textLength="7" x="14" y="236.4951">4</text></g><g id="elem_colors2"><path d="M642,218 L642,244.3516 L670,244.3516 L670,228 L660,218 L642,218 " fill="#FEFFDD" style="stroke:#181818;stroke-width:0.5;"/><path d="M660,218 L660,228 L670,228 L660,218 " fill="#FEFFDD" style="stroke:#181818;stroke-width:1.0;"/><text fill="#000000" font-family="sans-serif" font-size="13" lengthAdjust="spacing" textLength="7" x="648" y="236.4951">4</text></g><g id="elem_colors3"><path d="M579,218 L579,244.3516 L607,244.3516 L607,228 L597,218 L579,218 " fill="#FEFFDD" style="stroke:#181818;stroke-width:0.5;"/><path d="M597,218 L597,228 L607,228 L597,218 " fill="#FEFFDD" style="stroke:#181818;stroke-width:1.0;"/><text fill="#000000" font-family="sans-serif" font-size="13" lengthAdjust="spacing" textLength="7" x="585" y="236.4951">4</text></g><!--link Mastermind to Board--><g id="link_Mastermind_Board"><path codeLine="23" d="M475,57.43 C475,74.21 475,81.01 475,98.96 " fill="none" id="Mastermind-Board" style="stroke:#181818;stroke-width:1.0;"/><polygon fill="#181818" points="475,45.43,471,51.43,475,57.43,479,51.43,475,45.43" style="stroke:#181818;stroke-width:1.0;"/><polygon fill="#181818" points="475,104.96,479,95.96,475,99.96,471,95.96,475,104.96" style="stroke:#181818;stroke-width:1.0;"/></g><!--link Board to ProposedCombination1--><g id="link_Board_ProposedCombination1"><path codeLine="25" d="M418.3456,147.0152 C360.5256,164.8952 277.4821,190.5771 213.9821,210.2171 " fill="none" id="Board-ProposedCombination1" style="stroke:#181818;stroke-width:1.0;"/><polygon fill="#181818" points="429.81,143.47,422.8961,141.4211,418.3456,147.0152,425.2595,149.064,429.81,143.47" style="stroke:#181818;stroke-width:1.0;"/><polygon fill="#181818" points="208.25,211.99,218.0301,213.1521,213.0267,210.5126,215.6662,205.5093,208.25,211.99" style="stroke:#181818;stroke-width:1.0;"/></g><!--link Board to ProposedCombination2--><g id="link_Board_ProposedCombination2"><path codeLine="26" d="M531.6714,147.9322 C586.9114,165.9022 663.1643,190.6941 722.7143,210.0641 " fill="none" id="Board-ProposedCombination2" style="stroke:#181818;stroke-width:1.0;"/><polygon fill="#181818" points="520.26,144.22,524.7283,149.8799,531.6714,147.9322,527.2031,142.2723,520.26,144.22" style="stroke:#181818;stroke-width:1.0;"/><polygon fill="#181818" points="728.42,211.92,721.0987,205.3323,723.6652,210.3734,718.6241,212.9399,728.42,211.92" style="stroke:#181818;stroke-width:1.0;"/></g><!--link Board to SecretCombination--><g id="link_Board_SecretCombination"><path codeLine="27" d="M475,164.05 C475,182.11 475,189.1 475,205.88 " fill="none" id="Board-SecretCombination" style="stroke:#181818;stroke-width:1.0;"/><polygon fill="#181818" points="475,152.05,471,158.05,475,164.05,479,158.05,475,152.05" style="stroke:#181818;stroke-width:1.0;"/><polygon fill="#181818" points="475,211.88,479,202.88,475,206.88,471,202.88,475,211.88" style="stroke:#181818;stroke-width:1.0;"/></g><!--link Board to Result1--><g id="link_Board_Result1"><path codeLine="28" d="M434.7748,159.5502 C416.1048,174.6302 402.53,188.43 388,212 C368.68,243.34 360.3943,280.1196 356.4643,303.9996 " fill="none" id="Board-Result1" style="stroke:#181818;stroke-width:1.0;"/><polygon fill="#181818" points="444.11,152.01,436.929,152.6683,434.7748,159.5502,441.9558,158.8918,444.11,152.01" style="stroke:#181818;stroke-width:1.0;"/><polygon fill="#181818" points="355.49,309.92,360.8984,301.689,356.3019,304.9864,353.0046,300.3899,355.49,309.92" style="stroke:#181818;stroke-width:1.0;"/></g><!--link Board to Result2--><g id="link_Board_Result2"><path codeLine="29" d="M532.2813,132.9999 C627.7713,139.6199 832.87,159.4 881,212 C905.35,238.61 903.1045,278.3813 898.8845,303.7513 " fill="none" id="Board-Result2" style="stroke:#181818;stroke-width:1.0;"/><polygon fill="#181818" points="520.31,132.17,526.019,136.5754,532.2813,132.9999,526.5723,128.5945,520.31,132.17" style="stroke:#181818;stroke-width:1.0;"/><polygon fill="#181818" points="897.9,309.67,903.3225,301.4483,898.7204,304.7378,895.431,300.1356,897.9,309.67" style="stroke:#181818;stroke-width:1.0;"/></g><!--link proposedCombinations to ProposedCombination1--><g id="link_proposedCombinations_ProposedCombination1"><path codeLine="30" d="M207.91,141.82 C196.41,159.33 175.27,191.52 161.96,211.79 " fill="none" id="proposedCombinations-ProposedCombination1" style="stroke:#181818;stroke-width:1.0;stroke-dasharray:7.0,7.0;"/></g><!--link ProposedCombination1 to Color1--><g id="link_ProposedCombination1_Color1"><path codeLine="31" d="M118.7131,257.6717 C97.9331,274.7217 80.8276,288.7531 59.9476,305.8931 " fill="none" id="ProposedCombination1-Color1" style="stroke:#181818;stroke-width:1.0;"/><polygon fill="#181818" points="127.99,250.06,120.8143,250.7736,118.7131,257.6717,125.8888,256.9582,127.99,250.06" style="stroke:#181818;stroke-width:1.0;"/><polygon fill="#181818" points="55.31,309.7,64.8044,307.0814,59.1747,306.5276,59.7285,300.8979,55.31,309.7" style="stroke:#181818;stroke-width:1.0;"/></g><!--link ProposedCombination1 to Color2--><g id="link_ProposedCombination1_Color2"><path codeLine="32" d="M146.874,261.9951 C145.094,279.0451 144.3098,286.5921 142.5298,303.7321 " fill="none" id="ProposedCombination1-Color2" style="stroke:#181818;stroke-width:1.0;"/><polygon fill="#181818" points="148.12,250.06,143.5186,255.6122,146.874,261.9951,151.4754,256.4429,148.12,250.06" style="stroke:#181818;stroke-width:1.0;"/><polygon fill="#181818" points="141.91,309.7,146.8183,301.1613,142.4265,304.7267,138.8611,300.335,141.91,309.7" style="stroke:#181818;stroke-width:1.0;"/></g><!--link ProposedCombination1 to Result1--><g id="link_ProposedCombination1_Result1"><path codeLine="33" d="M188.18,250.06 C227.58,268.69 282.7358,294.7753 318.4358,311.6553 " fill="none" id="ProposedCombination1-to-Result1" style="stroke:#181818;stroke-width:1.0;"/><polygon fill="#181818" points="323.86,314.22,317.4335,306.7568,319.3398,312.0827,314.0139,313.9891,323.86,314.22" style="stroke:#181818;stroke-width:1.0;"/></g><!--link ProposedCombination2 to Color3--><g id="link_ProposedCombination2_Color3"><path codeLine="34" d="M759.3383,258.9031 C743.6983,275.9531 732.5327,288.1356 716.8327,305.2756 " fill="none" id="ProposedCombination2-Color3" style="stroke:#181818;stroke-width:1.0;"/><polygon fill="#181818" points="767.45,250.06,760.4464,251.7776,759.3383,258.9031,766.3418,257.1854,767.45,250.06" style="stroke:#181818;stroke-width:1.0;"/><polygon fill="#181818" points="712.78,309.7,721.8087,305.7652,716.1573,306.013,715.9095,300.3616,712.78,309.7" style="stroke:#181818;stroke-width:1.0;"/></g><!--link ProposedCombination2 to Color4--><g id="link_ProposedCombination2_Color4"><path codeLine="35" d="M783.6833,262.0593 C783.5033,279.1093 783.433,286.5603 783.253,303.7003 " fill="none" id="ProposedCombination2-Color4" style="stroke:#181818;stroke-width:1.0;"/><polygon fill="#181818" points="783.81,250.06,779.7469,256.0174,783.6833,262.0593,787.7464,256.1019,783.81,250.06" style="stroke:#181818;stroke-width:1.0;"/><polygon fill="#181818" points="783.19,309.7,787.2843,300.7425,783.2425,304.7003,779.2847,300.6585,783.19,309.7" style="stroke:#181818;stroke-width:1.0;"/></g><!--link ProposedCombination2 to Result2--><g id="link_ProposedCombination2_Result2"><path codeLine="36" d="M804.69,250.06 C824.23,267.11 848.8804,288.6137 868.5104,305.7537 " fill="none" id="ProposedCombination2-to-Result2" style="stroke:#181818;stroke-width:1.0;"/><polygon fill="#181818" points="873.03,309.7,868.8815,300.7675,869.2637,306.4114,863.6197,306.7936,873.03,309.7" style="stroke:#181818;stroke-width:1.0;"/></g><!--link SecretCombination to Color5--><g id="link_SecretCombination_Color5"><path codeLine="37" d="M465.1873,261.4449 C459.5073,278.4949 456.7064,286.8676 450.9964,304.0076 " fill="none" id="SecretCombination-Color5" style="stroke:#181818;stroke-width:1.0;"/><polygon fill="#181818" points="468.98,250.06,463.2887,254.4882,465.1873,261.4449,470.8786,257.0167,468.98,250.06" style="stroke:#181818;stroke-width:1.0;"/><polygon fill="#181818" points="449.1,309.7,455.7395,302.4256,450.6803,304.9563,448.1496,299.8971,449.1,309.7" style="stroke:#181818;stroke-width:1.0;"/></g><!--link SecretCombination to Color6--><g id="link_SecretCombination_Color6"><path codeLine="38" d="M491.3162,260.4718 C501.0862,277.5218 506.7196,287.3526 516.5296,304.4926 " fill="none" id="SecretCombination-Color6" style="stroke:#181818;stroke-width:1.0;"/><polygon fill="#181818" points="485.35,250.06,484.8625,257.2546,491.3162,260.4718,491.8037,253.2772,485.35,250.06" style="stroke:#181818;stroke-width:1.0;"/><polygon fill="#181818" points="519.51,309.7,518.511,299.9019,517.0263,305.3605,511.5678,303.8759,519.51,309.7" style="stroke:#181818;stroke-width:1.0;"/></g><!--link proposedCombinations to Result1--><g id="link_proposedCombinations_Result1"><path codeLine="39" d="M224.36,141.62 C247.6,175.29 313.04,270.11 340.56,309.98 " fill="none" id="proposedCombinations-Result1" style="stroke:#181818;stroke-width:1.0;stroke-dasharray:7.0,7.0;"/></g><!--link Result1 to White1--><g id="link_Result1_White1"><path codeLine="40" d="M353.3167,360.0593 C353.4967,377.1093 353.567,384.5603 353.747,401.7003 " fill="none" id="Result1-White1" style="stroke:#181818;stroke-width:1.0;"/><polygon fill="#181818" points="353.19,348.06,349.2536,354.1019,353.3167,360.0593,357.2531,354.0174,353.19,348.06" style="stroke:#181818;stroke-width:1.0;"/><polygon fill="#181818" points="353.81,407.7,357.7153,398.6585,353.7575,402.7003,349.7157,398.7425,353.81,407.7" style="stroke:#181818;stroke-width:1.0;"/></g><!--link Result1 to Black1--><g id="link_Result1_Black1"><path codeLine="41" d="M393.3827,347.7853 C436.1527,366.6153 498.3988,394.032 539.2988,412.042 " fill="none" id="Result1-Black1" style="stroke:#181818;stroke-width:1.0;"/><polygon fill="#181818" points="382.4,342.95,386.2796,349.0285,393.3827,347.7853,389.5031,341.7067,382.4,342.95" style="stroke:#181818;stroke-width:1.0;"/><polygon fill="#181818" points="544.79,414.46,538.1652,407.1722,540.214,412.445,534.9412,414.4938,544.79,414.46" style="stroke:#181818;stroke-width:1.0;"/></g><!--link Result2 to Black2--><g id="link_Result2_Black2"><path codeLine="42" d="M917.7024,357.0906 C932.6224,374.1406 943.0386,386.0449 958.0386,403.1849 " fill="none" id="Result2-Black2" style="stroke:#181818;stroke-width:1.0;"/><polygon fill="#181818" points="909.8,348.06,910.741,355.2094,917.7024,357.0906,916.7614,349.9412,909.8,348.06" style="stroke:#181818;stroke-width:1.0;"/><polygon fill="#181818" points="961.99,407.7,959.073,398.293,958.6972,403.9374,953.0528,403.5616,961.99,407.7" style="stroke:#181818;stroke-width:1.0;"/></g><!--link Result1 to White3--><g id="link_Result1_White3"><path codeLine="43" d="M328.3383,356.9031 C312.6983,373.9531 301.5327,386.1356 285.8327,403.2756 " fill="none" id="Result1-White3" style="stroke:#181818;stroke-width:1.0;"/><polygon fill="#181818" points="336.45,348.06,329.4464,349.7776,328.3383,356.9031,335.3418,355.1854,336.45,348.06" style="stroke:#181818;stroke-width:1.0;"/><polygon fill="#181818" points="281.78,407.7,290.8087,403.7652,285.1573,404.013,284.9095,398.3616,281.78,407.7" style="stroke:#181818;stroke-width:1.0;"/></g><!--link Result1 to Black3--><g id="link_Result1_Black3"><path codeLine="44" d="M382.7318,355.9496 C402.2718,372.9996 417.8804,386.6137 437.5104,403.7537 " fill="none" id="Result1-Black3" style="stroke:#181818;stroke-width:1.0;"/><polygon fill="#181818" points="373.69,348.06,375.581,355.0187,382.7318,355.9496,380.8408,348.9909,373.69,348.06" style="stroke:#181818;stroke-width:1.0;"/><polygon fill="#181818" points="442.03,407.7,437.8815,398.7675,438.2637,404.4114,432.6197,404.7936,442.03,407.7" style="stroke:#181818;stroke-width:1.0;"/></g><!--link Result2 to Black4--><g id="link_Result2_Black4"><path codeLine="45" d="M893.0601,360.054 C892.5201,377.104 892.2989,384.563 891.7589,401.703 " fill="none" id="Result2-Black4" style="stroke:#181818;stroke-width:1.0;"/><polygon fill="#181818" points="893.44,348.06,889.2521,353.9304,893.0601,360.054,897.2481,354.1836,893.44,348.06" style="stroke:#181818;stroke-width:1.0;"/><polygon fill="#181818" points="891.57,407.7,895.8514,398.8304,891.7274,402.7025,887.8554,398.5785,891.57,407.7" style="stroke:#181818;stroke-width:1.0;"/></g><!--link winnerBlacks to Black4--><g id="link_winnerBlacks_Black4"><path codeLine="47" d="M965.23,342.16 C950.58,358.71 924.24,388.46 907.19,407.71 " fill="none" id="winnerBlacks-Black4" style="stroke:#181818;stroke-width:1.0;stroke-dasharray:7.0,7.0;"/></g><!--link winnerBlacks to Black2--><g id="link_winnerBlacks_Black2"><path codeLine="48" d="M976.25,342.16 C976.6,358.71 977.22,388.46 977.62,407.71 " fill="none" id="winnerBlacks-Black2" style="stroke:#181818;stroke-width:1.0;stroke-dasharray:7.0,7.0;"/></g><!--link loserBlacks to Black1--><g id="link_loserBlacks_Black1"><path codeLine="50" d="M607.68,342.16 C600.44,358.71 587.42,388.46 579,407.71 " fill="none" id="loserBlacks-Black1" style="stroke:#181818;stroke-width:1.0;stroke-dasharray:7.0,7.0;"/></g><!--link loserBlacks to Black3--><g id="link_loserBlacks_Black3"><path codeLine="51" d="M594,342.16 C567.44,359.16 519.09,390.1 489.14,409.27 " fill="none" id="loserBlacks-Black3" style="stroke:#181818;stroke-width:1.0;stroke-dasharray:7.0,7.0;"/></g><!--link loserWhites to White1--><g id="link_loserWhites_White1"><path codeLine="53" d="M277.15,342.16 C292.31,358.71 319.59,388.46 337.23,407.71 " fill="none" id="loserWhites-White1" style="stroke:#181818;stroke-width:1.0;stroke-dasharray:7.0,7.0;"/></g><!--link loserWhites to White3--><g id="link_loserWhites_White3"><path codeLine="54" d="M265.87,342.16 C265.7,358.71 265.39,388.46 265.19,407.71 " fill="none" id="loserWhites-White3" style="stroke:#181818;stroke-width:1.0;stroke-dasharray:7.0,7.0;"/></g><!--link colors1 to Color1--><g id="link_colors1_Color1"><path codeLine="56" d="M23.39,244.16 C25.29,260.71 28.7,290.46 30.9,309.71 " fill="none" id="colors1-Color1" style="stroke:#181818;stroke-width:1.0;stroke-dasharray:7.0,7.0;"/></g><!--link colors1 to Color2--><g id="link_colors1_Color2"><path codeLine="57" d="M36.47,243.77 C56.78,260.29 93.92,290.51 117.75,309.9 " fill="none" id="colors1-Color2" style="stroke:#181818;stroke-width:1.0;stroke-dasharray:7.0,7.0;"/></g><!--link colors2 to Color3--><g id="link_colors2_Color3"><path codeLine="59" d="M661.07,244.16 C667.96,260.71 680.36,290.46 688.38,309.71 " fill="none" id="colors2-Color3" style="stroke:#181818;stroke-width:1.0;stroke-dasharray:7.0,7.0;"/></g><!--link colors2 to Color4--><g id="link_colors2_Color4"><path codeLine="60" d="M670.08,242.64 C691.52,258.85 732.63,289.93 758.89,309.78 " fill="none" id="colors2-Color4" style="stroke:#181818;stroke-width:1.0;stroke-dasharray:7.0,7.0;"/></g><!--link colors3 to Color5--><g id="link_colors3_Color5"><path codeLine="62" d="M578.89,241.03 C553.8,257.09 501.08,290.83 469.19,311.24 " fill="none" id="colors3-Color5" style="stroke:#181818;stroke-width:1.0;stroke-dasharray:7.0,7.0;"/></g><!--link colors3 to Color6--><g id="link_colors3_Color6"><path codeLine="63" d="M585.02,244.16 C574.16,260.71 554.63,290.46 542,309.71 " fill="none" id="colors3-Color6" style="stroke:#181818;stroke-width:1.0;stroke-dasharray:7.0,7.0;"/></g><!--SRC=[dL8zJyCm49tnhx0w8ZKYjjC12OPsHa8mCAUf9LBIk8gD613_7NA-n6vzRYMcNDx7wUxyp7Ql6ySNzq-rTNeujFrkmMlBmoypasHjwi6pKF5lTbCxfmz7P_a3hzXFaBxgPj1kOmxRjgzTQtgm9MWmF0_cQApUdLi8lFoNImJNndHc01rKPPR9UsIMKLccoZAhmBne-zave7nPNk2Y-TxUMwU1WYfohRkw-V2lDbPv9jzDPZrvHZ4MCiHlbyj7dnhM6wVvOWxEafTWEgPFPfdF6PZ985pcHSodsOl8wTG991Wr5oyAUXuAzEqmQLS4WXR48r9xHXtaDO6Y1V7AoQaYUtMHNMNFDOsFN-_1g9vW65AS9S84uPM4Ln9UXQbJ4BMljk_r08HbySyuAEf9M62RkwAGqAdxMtLg5DMpeIHH6Tgeq0OMmZQ-7Wru8WgL9qiru_rjoV0xgZ1pvuWWV09LObR91564RrB9MLKboEeN]--></g></svg>