<?xml version="1.0" encoding="us-ascii" standalone="no"?><svg xmlns="http://www.w3.org/2000/svg" xmlns:xlink="http://www.w3.org/1999/xlink" contentStyleType="text/css" height="789px" preserveAspectRatio="none" style="width:397px;height:789px;background:#FFFFFF;" version="1.1" viewBox="0 0 397 789" width="397px" zoomAndPan="magnify"><defs/><g><g id="S1"><rect fill="#F1F1F1" height="50" rx="12.5" ry="12.5" style="stroke:#181818;stroke-width:0.5;" width="102" x="158" y="104"/><line style="stroke:#181818;stroke-width:0.5;" x1="158" x2="260" y1="131.6094" y2="131.6094"/><text fill="#000000" font-family="sans-serif" font-size="14" lengthAdjust="spacing" textLength="82" x="168" y="123.5332">secret setted</text></g><g id="S2"><rect fill="#F1F1F1" height="50" rx="12.5" ry="12.5" style="stroke:#181818;stroke-width:0.5;" width="160" x="7" y="232"/><line style="stroke:#181818;stroke-width:0.5;" x1="7" x2="167" y1="259.6094" y2="259.6094"/><text fill="#000000" font-family="sans-serif" font-size="14" lengthAdjust="spacing" textLength="140" x="17" y="251.5332">combination proposed</text></g><g id="elem_S3"><polygon fill="#F1F1F1" points="55,429,67,441,55,453,43,441,55,429" style="stroke:#181818;stroke-width:0.5;"/></g><g id="S4"><rect fill="#F1F1F1" height="50" rx="12.5" ry="12.5" style="stroke:#181818;stroke-width:0.5;" width="134" x="132" y="531"/><line style="stroke:#181818;stroke-width:0.5;" x1="132" x2="266" y1="558.6094" y2="558.6094"/><text fill="#000000" font-family="sans-serif" font-size="14" lengthAdjust="spacing" textLength="114" x="142" y="550.5332">combination failed</text></g><g id="elem_S5"><polygon fill="#F1F1F1" points="231,659,243,671,231,683,219,671,231,659" style="stroke:#181818;stroke-width:0.5;"/></g><ellipse cx="209" cy="16" fill="#222222" rx="10" ry="10" style="stroke:#222222;stroke-width:1.0;"/><ellipse cx="84" cy="772" fill="none" rx="11" ry="11" style="stroke:#222222;stroke-width:1.0;"/><ellipse cx="84" cy="772" fill="#222222" rx="6" ry="6" style="stroke:#222222;stroke-width:1.0;"/><!--link *start* to S1--><g id="link_*start*_S1"><path d="M209,26.08 C209,42.86 209,73.22 209,97.65 " fill="none" id="*start*-to-S1" style="stroke:#181818;stroke-width:1.0;"/><polygon fill="#181818" points="209,103.65,213,94.65,209,98.65,205,94.65,209,103.65" style="stroke:#181818;stroke-width:1.0;"/><text fill="#000000" font-family="sans-serif" font-size="13" lengthAdjust="spacing" textLength="179" x="210" y="70.4951">maker sets secret combination</text></g><!--link S1 to S2--><g id="link_S1_S2"><path d="M165.54,154.24 C152.83,162.61 139.54,172.75 129,184 C115.84,198.05 107.6758,211.5498 100.3158,226.4598 " fill="none" id="S1-to-S2" style="stroke:#181818;stroke-width:1.0;"/><polygon fill="#181818" points="97.66,231.84,105.2305,225.5402,99.8732,227.3565,98.0569,221.9991,97.66,231.84" style="stroke:#181818;stroke-width:1.0;"/><text fill="#000000" font-family="sans-serif" font-size="13" lengthAdjust="spacing" textLength="174" x="130" y="198.4951">breaker proposes combination</text></g><!--link S2 to S3--><g id="link_S2_S3"><path d="M58.7,282.26 C50.77,290.77 43.19,300.98 39,312 C25.26,348.14 31.85,361 39,399 C41.32,411.31 44.5763,419.2987 48.5263,427.3087 " fill="none" id="S2-to-S3" style="stroke:#181818;stroke-width:1.0;"/><polygon fill="#181818" points="51.18,432.69,50.787,422.849,48.9686,428.2056,43.612,426.3872,51.18,432.69" style="stroke:#181818;stroke-width:1.0;"/><text fill="#000000" font-family="sans-serif" font-size="13" lengthAdjust="spacing" textLength="101" x="121.5" y="326.4951">maker sets result</text><path d="M44,335.3516 L44,394.3516 L300,394.3516 L300,345.3516 L290,335.3516 L44,335.3516 " fill="#FEFFDD" style="stroke:#181818;stroke-width:0.5;"/><path d="M290,335.3516 L290,345.3516 L300,345.3516 L290,335.3516 " fill="#FEFFDD" style="stroke:#181818;stroke-width:0.5;"/><text fill="#000000" font-family="sans-serif" font-size="13" lengthAdjust="spacing" textLength="218" x="50" y="353.8467">black: correct color in correct position</text><text fill="#000000" font-family="sans-serif" font-size="13" lengthAdjust="spacing" textLength="235" x="50" y="370.1982">white: correct color but incorrect position</text><text fill="#000000" font-family="sans-serif" font-size="13" lengthAdjust="spacing" textLength="60" x="50" y="386.5498">none: else</text></g><!--link S3 to *end*--><g id="link_S3_*end*"><path d="M54.17,452.17 C52.03,480.36 46.98,561.84 54,629 C59.26,679.37 73.146,732.4012 79.556,755.3512 " fill="none" id="S3-to-*end*" style="stroke:#181818;stroke-width:1.0;"/><polygon fill="#181818" points="81.17,761.13,82.6015,751.3857,79.825,756.3143,74.8964,753.5378,81.17,761.13" style="stroke:#181818;stroke-width:1.0;"/><text fill="#000000" font-family="sans-serif" font-size="13" lengthAdjust="spacing" textLength="151" x="55" y="625.4951">[result's all 4 colors black]</text></g><!--link S3 to S4--><g id="link_S3_S4"><path d="M61.19,446.86 C79.38,461.13 128.89,499.9857 163.65,527.2657 " fill="none" id="S3-to-S4" style="stroke:#181818;stroke-width:1.0;"/><polygon fill="#181818" points="168.37,530.97,163.7596,522.2669,164.4367,527.8831,158.8205,528.5602,168.37,530.97" style="stroke:#181818;stroke-width:1.0;"/><text fill="#000000" font-family="sans-serif" font-size="13" lengthAdjust="spacing" textLength="32" x="128" y="497.4951">[else]</text></g><!--link S4 to S5--><g id="link_S4_S5"><path d="M205.86,581.24 C212.99,606.4 222.1134,638.6275 226.9134,655.5575 " fill="none" id="S4-to-S5" style="stroke:#181818;stroke-width:1.0;"/><polygon fill="#181818" points="228.55,661.33,229.9434,651.5802,227.1862,656.5196,222.2468,653.7624,228.55,661.33" style="stroke:#181818;stroke-width:1.0;"/></g><!--link S5 to *end*--><g id="link_S5_*end*"><path d="M224.3,676.51 C200.49,692.55 124.8761,743.4676 97.8761,761.6576 " fill="none" id="S5-to-*end*" style="stroke:#181818;stroke-width:1.0;"/><polygon fill="#181818" points="92.9,765.01,102.5991,763.2988,97.0467,762.2163,98.1292,756.664,92.9,765.01" style="stroke:#181818;stroke-width:1.0;"/><text fill="#000000" font-family="sans-serif" font-size="13" lengthAdjust="spacing" textLength="106" x="168" y="727.4951">[result count = 10]</text></g><!--link S5 to S1--><g id="link_S5_S1"><path d="M238.52,666.23 C261.77,653.97 331,612.8 331,557 C331,256 331,256 331,256 C331,222.54 330.2,209.89 309,184 C296.25,168.43 283.1959,159.2932 265.5859,150.8132 " fill="none" id="S5-to-S1" style="stroke:#181818;stroke-width:1.0;"/><polygon fill="#181818" points="260.18,148.21,266.5534,155.7187,264.6849,150.3793,270.0243,148.5108,260.18,148.21" style="stroke:#181818;stroke-width:1.0;"/><text fill="#000000" font-family="sans-serif" font-size="13" lengthAdjust="spacing" textLength="32" x="332" y="446.4951">[else]</text></g><!--SRC=[RP3BZi8m34Nt-GgBpKX8IDDIDXNJd-WITP46ZuWQ4XIxulV7QHh4OxREkTSd9jQCi24q4Ha8cV6y0KtGLuhocmdNqNhDDdYunN0BL91wHVez78_c4gp1hlilzgkjAw6cX0xF8NNQ3h3RTR8NMhZg2MEo8LZDdjgK80jPjp16ND3LYrwvEdFxbyA8D3jMFeY3g3dh9pKwRQPMmZ6YISjSY63zOo3TTgcyNopZEpZEBF07wuCN51sXGd-6j539fPAIVBQ5KpRv8j3EGPFB21QNeP1z8s3ga4cJ9mSbftjlaVJi6NwW-XxAUryzikeF]--></g></svg>