<?xml version="1.0" encoding="us-ascii" standalone="no"?><svg xmlns="http://www.w3.org/2000/svg" xmlns:xlink="http://www.w3.org/1999/xlink" contentStyleType="text/css" height="816px" preserveAspectRatio="none" style="width:683px;height:816px;background:#FFFFFF;" version="1.1" viewBox="0 0 683 816" width="683px" zoomAndPan="magnify"><defs/><g><!--class Mastermind--><g id="elem_Mastermind"><rect codeLine="1" fill="#F1F1F1" height="48" id="Mastermind" rx="2.5" ry="2.5" style="stroke:#181818;stroke-width:0.5;" width="105" x="282" y="7"/><ellipse cx="297" cy="23" fill="#ADD1B2" rx="11" ry="11" style="stroke:#181818;stroke-width:1.0;"/><path d="M299.7656,18.875 Q299.9219,18.6563 300.1094,18.5469 Q300.2969,18.4375 300.5156,18.4375 Q300.8906,18.4375 301.125,18.7031 Q301.3594,18.9531 301.3594,19.5625 L301.3594,21.0156 Q301.3594,21.625 301.125,21.8906 Q300.8906,22.1563 300.5156,22.1563 Q300.1719,22.1563 299.9688,21.9531 Q299.7656,21.7656 299.6563,21.25 Q299.6094,20.8906 299.4219,20.7031 Q299.0938,20.3281 298.4844,20.1094 Q297.875,19.8906 297.25,19.8906 Q296.4844,19.8906 295.8438,20.2188 Q295.2188,20.5469 294.7188,21.2969 Q294.2344,22.0469 294.2344,23.0781 L294.2344,24.1719 Q294.2344,25.4063 295.125,26.2344 Q296.0156,27.0469 297.6094,27.0469 Q298.5469,27.0469 299.2031,26.7969 Q299.5938,26.6406 300.0156,26.2031 Q300.2813,25.9375 300.4219,25.8594 Q300.5781,25.7813 300.7813,25.7813 Q301.1094,25.7813 301.3594,26.0469 Q301.625,26.2969 301.625,26.6406 Q301.625,26.9844 301.2813,27.3906 Q300.7813,27.9688 299.9844,28.2969 Q298.9063,28.75 297.6094,28.75 Q296.0938,28.75 294.8906,28.125 Q293.9063,27.625 293.2188,26.5625 Q292.5313,25.4844 292.5313,24.2031 L292.5313,23.0469 Q292.5313,21.7188 293.1406,20.5781 Q293.7656,19.4219 294.8594,18.8125 Q295.9531,18.1875 297.1875,18.1875 Q297.9219,18.1875 298.5625,18.3594 Q299.2188,18.5156 299.7656,18.875 Z " fill="#000000"/><text fill="#000000" font-family="sans-serif" font-size="14" lengthAdjust="spacing" textLength="73" x="311" y="28.7285">Mastermind</text><line style="stroke:#181818;stroke-width:0.5;" x1="283" x2="386" y1="39" y2="39"/><line style="stroke:#181818;stroke-width:0.5;" x1="283" x2="386" y1="47" y2="47"/></g><!--class Turn--><g id="elem_Turn"><rect codeLine="2" fill="#F1F1F1" height="48" id="Turn" rx="2.5" ry="2.5" style="stroke:#181818;stroke-width:0.5;" width="62" x="303.5" y="115"/><ellipse cx="318.5" cy="131" fill="#ADD1B2" rx="11" ry="11" style="stroke:#181818;stroke-width:1.0;"/><path d="M321.2656,126.875 Q321.4219,126.6563 321.6094,126.5469 Q321.7969,126.4375 322.0156,126.4375 Q322.3906,126.4375 322.625,126.7031 Q322.8594,126.9531 322.8594,127.5625 L322.8594,129.0156 Q322.8594,129.625 322.625,129.8906 Q322.3906,130.1563 322.0156,130.1563 Q321.6719,130.1563 321.4688,129.9531 Q321.2656,129.7656 321.1563,129.25 Q321.1094,128.8906 320.9219,128.7031 Q320.5938,128.3281 319.9844,128.1094 Q319.375,127.8906 318.75,127.8906 Q317.9844,127.8906 317.3438,128.2188 Q316.7188,128.5469 316.2188,129.2969 Q315.7344,130.0469 315.7344,131.0781 L315.7344,132.1719 Q315.7344,133.4063 316.625,134.2344 Q317.5156,135.0469 319.1094,135.0469 Q320.0469,135.0469 320.7031,134.7969 Q321.0938,134.6406 321.5156,134.2031 Q321.7813,133.9375 321.9219,133.8594 Q322.0781,133.7813 322.2813,133.7813 Q322.6094,133.7813 322.8594,134.0469 Q323.125,134.2969 323.125,134.6406 Q323.125,134.9844 322.7813,135.3906 Q322.2813,135.9688 321.4844,136.2969 Q320.4063,136.75 319.1094,136.75 Q317.5938,136.75 316.3906,136.125 Q315.4063,135.625 314.7188,134.5625 Q314.0313,133.4844 314.0313,132.2031 L314.0313,131.0469 Q314.0313,129.7188 314.6406,128.5781 Q315.2656,127.4219 316.3594,126.8125 Q317.4531,126.1875 318.6875,126.1875 Q319.4219,126.1875 320.0625,126.3594 Q320.7188,126.5156 321.2656,126.875 Z " fill="#000000"/><text fill="#000000" font-family="sans-serif" font-size="14" lengthAdjust="spacing" textLength="30" x="332.5" y="136.7285">Turn</text><line style="stroke:#181818;stroke-width:0.5;" x1="304.5" x2="364.5" y1="147" y2="147"/><line style="stroke:#181818;stroke-width:0.5;" x1="304.5" x2="364.5" y1="155" y2="155"/></g><!--class Board--><g id="elem_Board"><rect codeLine="3" fill="#F1F1F1" height="48" id="Board" rx="2.5" ry="2.5" style="stroke:#181818;stroke-width:0.5;" width="70" x="383.5" y="331"/><ellipse cx="398.5" cy="347" fill="#ADD1B2" rx="11" ry="11" style="stroke:#181818;stroke-width:1.0;"/><path d="M401.2656,342.875 Q401.4219,342.6563 401.6094,342.5469 Q401.7969,342.4375 402.0156,342.4375 Q402.3906,342.4375 402.625,342.7031 Q402.8594,342.9531 402.8594,343.5625 L402.8594,345.0156 Q402.8594,345.625 402.625,345.8906 Q402.3906,346.1563 402.0156,346.1563 Q401.6719,346.1563 401.4688,345.9531 Q401.2656,345.7656 401.1563,345.25 Q401.1094,344.8906 400.9219,344.7031 Q400.5938,344.3281 399.9844,344.1094 Q399.375,343.8906 398.75,343.8906 Q397.9844,343.8906 397.3438,344.2188 Q396.7188,344.5469 396.2188,345.2969 Q395.7344,346.0469 395.7344,347.0781 L395.7344,348.1719 Q395.7344,349.4063 396.625,350.2344 Q397.5156,351.0469 399.1094,351.0469 Q400.0469,351.0469 400.7031,350.7969 Q401.0938,350.6406 401.5156,350.2031 Q401.7813,349.9375 401.9219,349.8594 Q402.0781,349.7813 402.2813,349.7813 Q402.6094,349.7813 402.8594,350.0469 Q403.125,350.2969 403.125,350.6406 Q403.125,350.9844 402.7813,351.3906 Q402.2813,351.9688 401.4844,352.2969 Q400.4063,352.75 399.1094,352.75 Q397.5938,352.75 396.3906,352.125 Q395.4063,351.625 394.7188,350.5625 Q394.0313,349.4844 394.0313,348.2031 L394.0313,347.0469 Q394.0313,345.7188 394.6406,344.5781 Q395.2656,343.4219 396.3594,342.8125 Q397.4531,342.1875 398.6875,342.1875 Q399.4219,342.1875 400.0625,342.3594 Q400.7188,342.5156 401.2656,342.875 Z " fill="#000000"/><text fill="#000000" font-family="sans-serif" font-size="14" lengthAdjust="spacing" textLength="38" x="412.5" y="352.7285">Board</text><line style="stroke:#181818;stroke-width:0.5;" x1="384.5" x2="452.5" y1="363" y2="363"/><line style="stroke:#181818;stroke-width:0.5;" x1="384.5" x2="452.5" y1="371" y2="371"/></g><!--class Player--><g id="elem_Player"><rect codeLine="4" fill="#F1F1F1" height="48" id="Player" rx="2.5" ry="2.5" style="stroke:#181818;stroke-width:0.5;" width="72" x="272.5" y="223"/><ellipse cx="287.5" cy="239" fill="#ADD1B2" rx="11" ry="11" style="stroke:#181818;stroke-width:1.0;"/><path d="M290.2656,234.875 Q290.4219,234.6563 290.6094,234.5469 Q290.7969,234.4375 291.0156,234.4375 Q291.3906,234.4375 291.625,234.7031 Q291.8594,234.9531 291.8594,235.5625 L291.8594,237.0156 Q291.8594,237.625 291.625,237.8906 Q291.3906,238.1563 291.0156,238.1563 Q290.6719,238.1563 290.4688,237.9531 Q290.2656,237.7656 290.1563,237.25 Q290.1094,236.8906 289.9219,236.7031 Q289.5938,236.3281 288.9844,236.1094 Q288.375,235.8906 287.75,235.8906 Q286.9844,235.8906 286.3438,236.2188 Q285.7188,236.5469 285.2188,237.2969 Q284.7344,238.0469 284.7344,239.0781 L284.7344,240.1719 Q284.7344,241.4063 285.625,242.2344 Q286.5156,243.0469 288.1094,243.0469 Q289.0469,243.0469 289.7031,242.7969 Q290.0938,242.6406 290.5156,242.2031 Q290.7813,241.9375 290.9219,241.8594 Q291.0781,241.7813 291.2813,241.7813 Q291.6094,241.7813 291.8594,242.0469 Q292.125,242.2969 292.125,242.6406 Q292.125,242.9844 291.7813,243.3906 Q291.2813,243.9688 290.4844,244.2969 Q289.4063,244.75 288.1094,244.75 Q286.5938,244.75 285.3906,244.125 Q284.4063,243.625 283.7188,242.5625 Q283.0313,241.4844 283.0313,240.2031 L283.0313,239.0469 Q283.0313,237.7188 283.6406,236.5781 Q284.2656,235.4219 285.3594,234.8125 Q286.4531,234.1875 287.6875,234.1875 Q288.4219,234.1875 289.0625,234.3594 Q289.7188,234.5156 290.2656,234.875 Z " fill="#000000"/><text fill="#000000" font-family="sans-serif" font-size="14" lengthAdjust="spacing" textLength="40" x="301.5" y="244.7285">Player</text><line style="stroke:#181818;stroke-width:0.5;" x1="273.5" x2="343.5" y1="255" y2="255"/><line style="stroke:#181818;stroke-width:0.5;" x1="273.5" x2="343.5" y1="263" y2="263"/></g><!--class MakerPlayer--><g id="elem_MakerPlayer"><rect codeLine="5" fill="#F1F1F1" height="48" id="MakerPlayer" rx="2.5" ry="2.5" style="stroke:#181818;stroke-width:0.5;" width="111" x="489" y="331"/><ellipse cx="504" cy="347" fill="#ADD1B2" rx="11" ry="11" style="stroke:#181818;stroke-width:1.0;"/><path d="M506.7656,342.875 Q506.9219,342.6563 507.1094,342.5469 Q507.2969,342.4375 507.5156,342.4375 Q507.8906,342.4375 508.125,342.7031 Q508.3594,342.9531 508.3594,343.5625 L508.3594,345.0156 Q508.3594,345.625 508.125,345.8906 Q507.8906,346.1563 507.5156,346.1563 Q507.1719,346.1563 506.9688,345.9531 Q506.7656,345.7656 506.6563,345.25 Q506.6094,344.8906 506.4219,344.7031 Q506.0938,344.3281 505.4844,344.1094 Q504.875,343.8906 504.25,343.8906 Q503.4844,343.8906 502.8438,344.2188 Q502.2188,344.5469 501.7188,345.2969 Q501.2344,346.0469 501.2344,347.0781 L501.2344,348.1719 Q501.2344,349.4063 502.125,350.2344 Q503.0156,351.0469 504.6094,351.0469 Q505.5469,351.0469 506.2031,350.7969 Q506.5938,350.6406 507.0156,350.2031 Q507.2813,349.9375 507.4219,349.8594 Q507.5781,349.7813 507.7813,349.7813 Q508.1094,349.7813 508.3594,350.0469 Q508.625,350.2969 508.625,350.6406 Q508.625,350.9844 508.2813,351.3906 Q507.7813,351.9688 506.9844,352.2969 Q505.9063,352.75 504.6094,352.75 Q503.0938,352.75 501.8906,352.125 Q500.9063,351.625 500.2188,350.5625 Q499.5313,349.4844 499.5313,348.2031 L499.5313,347.0469 Q499.5313,345.7188 500.1406,344.5781 Q500.7656,343.4219 501.8594,342.8125 Q502.9531,342.1875 504.1875,342.1875 Q504.9219,342.1875 505.5625,342.3594 Q506.2188,342.5156 506.7656,342.875 Z " fill="#000000"/><text fill="#000000" font-family="sans-serif" font-size="14" lengthAdjust="spacing" textLength="79" x="518" y="352.7285">MakerPlayer</text><line style="stroke:#181818;stroke-width:0.5;" x1="490" x2="599" y1="363" y2="363"/><line style="stroke:#181818;stroke-width:0.5;" x1="490" x2="599" y1="371" y2="371"/></g><!--class BreakerPlayer--><g id="elem_BreakerPlayer"><rect codeLine="6" fill="#F1F1F1" height="48" id="BreakerPlayer" rx="2.5" ry="2.5" style="stroke:#181818;stroke-width:0.5;" width="122" x="226.5" y="331"/><ellipse cx="241.5" cy="347" fill="#ADD1B2" rx="11" ry="11" style="stroke:#181818;stroke-width:1.0;"/><path d="M244.2656,342.875 Q244.4219,342.6563 244.6094,342.5469 Q244.7969,342.4375 245.0156,342.4375 Q245.3906,342.4375 245.625,342.7031 Q245.8594,342.9531 245.8594,343.5625 L245.8594,345.0156 Q245.8594,345.625 245.625,345.8906 Q245.3906,346.1563 245.0156,346.1563 Q244.6719,346.1563 244.4688,345.9531 Q244.2656,345.7656 244.1563,345.25 Q244.1094,344.8906 243.9219,344.7031 Q243.5938,344.3281 242.9844,344.1094 Q242.375,343.8906 241.75,343.8906 Q240.9844,343.8906 240.3438,344.2188 Q239.7188,344.5469 239.2188,345.2969 Q238.7344,346.0469 238.7344,347.0781 L238.7344,348.1719 Q238.7344,349.4063 239.625,350.2344 Q240.5156,351.0469 242.1094,351.0469 Q243.0469,351.0469 243.7031,350.7969 Q244.0938,350.6406 244.5156,350.2031 Q244.7813,349.9375 244.9219,349.8594 Q245.0781,349.7813 245.2813,349.7813 Q245.6094,349.7813 245.8594,350.0469 Q246.125,350.2969 246.125,350.6406 Q246.125,350.9844 245.7813,351.3906 Q245.2813,351.9688 244.4844,352.2969 Q243.4063,352.75 242.1094,352.75 Q240.5938,352.75 239.3906,352.125 Q238.4063,351.625 237.7188,350.5625 Q237.0313,349.4844 237.0313,348.2031 L237.0313,347.0469 Q237.0313,345.7188 237.6406,344.5781 Q238.2656,343.4219 239.3594,342.8125 Q240.4531,342.1875 241.6875,342.1875 Q242.4219,342.1875 243.0625,342.3594 Q243.7188,342.5156 244.2656,342.875 Z " fill="#000000"/><text fill="#000000" font-family="sans-serif" font-size="14" lengthAdjust="spacing" textLength="90" x="255.5" y="352.7285">BreakerPlayer</text><line style="stroke:#181818;stroke-width:0.5;" x1="227.5" x2="347.5" y1="363" y2="363"/><line style="stroke:#181818;stroke-width:0.5;" x1="227.5" x2="347.5" y1="371" y2="371"/></g><!--class Combination--><g id="elem_Combination"><rect codeLine="7" fill="#F1F1F1" height="48" id="Combination" rx="2.5" ry="2.5" style="stroke:#181818;stroke-width:0.5;" width="111" x="80" y="331"/><ellipse cx="95" cy="347" fill="#ADD1B2" rx="11" ry="11" style="stroke:#181818;stroke-width:1.0;"/><path d="M97.7656,342.875 Q97.9219,342.6563 98.1094,342.5469 Q98.2969,342.4375 98.5156,342.4375 Q98.8906,342.4375 99.125,342.7031 Q99.3594,342.9531 99.3594,343.5625 L99.3594,345.0156 Q99.3594,345.625 99.125,345.8906 Q98.8906,346.1563 98.5156,346.1563 Q98.1719,346.1563 97.9688,345.9531 Q97.7656,345.7656 97.6563,345.25 Q97.6094,344.8906 97.4219,344.7031 Q97.0938,344.3281 96.4844,344.1094 Q95.875,343.8906 95.25,343.8906 Q94.4844,343.8906 93.8438,344.2188 Q93.2188,344.5469 92.7188,345.2969 Q92.2344,346.0469 92.2344,347.0781 L92.2344,348.1719 Q92.2344,349.4063 93.125,350.2344 Q94.0156,351.0469 95.6094,351.0469 Q96.5469,351.0469 97.2031,350.7969 Q97.5938,350.6406 98.0156,350.2031 Q98.2813,349.9375 98.4219,349.8594 Q98.5781,349.7813 98.7813,349.7813 Q99.1094,349.7813 99.3594,350.0469 Q99.625,350.2969 99.625,350.6406 Q99.625,350.9844 99.2813,351.3906 Q98.7813,351.9688 97.9844,352.2969 Q96.9063,352.75 95.6094,352.75 Q94.0938,352.75 92.8906,352.125 Q91.9063,351.625 91.2188,350.5625 Q90.5313,349.4844 90.5313,348.2031 L90.5313,347.0469 Q90.5313,345.7188 91.1406,344.5781 Q91.7656,343.4219 92.8594,342.8125 Q93.9531,342.1875 95.1875,342.1875 Q95.9219,342.1875 96.5625,342.3594 Q97.2188,342.5156 97.7656,342.875 Z " fill="#000000"/><text fill="#000000" font-family="sans-serif" font-size="14" lengthAdjust="spacing" textLength="79" x="109" y="352.7285">Combination</text><line style="stroke:#181818;stroke-width:0.5;" x1="81" x2="190" y1="363" y2="363"/><line style="stroke:#181818;stroke-width:0.5;" x1="81" x2="190" y1="371" y2="371"/></g><!--class ProposedCombination--><g id="elem_ProposedCombination"><rect codeLine="8" fill="#F1F1F1" height="48" id="ProposedCombination" rx="2.5" ry="2.5" style="stroke:#181818;stroke-width:0.5;" width="172" x="135.5" y="492"/><ellipse cx="150.5" cy="508" fill="#ADD1B2" rx="11" ry="11" style="stroke:#181818;stroke-width:1.0;"/><path d="M153.2656,503.875 Q153.4219,503.6563 153.6094,503.5469 Q153.7969,503.4375 154.0156,503.4375 Q154.3906,503.4375 154.625,503.7031 Q154.8594,503.9531 154.8594,504.5625 L154.8594,506.0156 Q154.8594,506.625 154.625,506.8906 Q154.3906,507.1563 154.0156,507.1563 Q153.6719,507.1563 153.4688,506.9531 Q153.2656,506.7656 153.1563,506.25 Q153.1094,505.8906 152.9219,505.7031 Q152.5938,505.3281 151.9844,505.1094 Q151.375,504.8906 150.75,504.8906 Q149.9844,504.8906 149.3438,505.2188 Q148.7188,505.5469 148.2188,506.2969 Q147.7344,507.0469 147.7344,508.0781 L147.7344,509.1719 Q147.7344,510.4063 148.625,511.2344 Q149.5156,512.0469 151.1094,512.0469 Q152.0469,512.0469 152.7031,511.7969 Q153.0938,511.6406 153.5156,511.2031 Q153.7813,510.9375 153.9219,510.8594 Q154.0781,510.7813 154.2813,510.7813 Q154.6094,510.7813 154.8594,511.0469 Q155.125,511.2969 155.125,511.6406 Q155.125,511.9844 154.7813,512.3906 Q154.2813,512.9688 153.4844,513.2969 Q152.4063,513.75 151.1094,513.75 Q149.5938,513.75 148.3906,513.125 Q147.4063,512.625 146.7188,511.5625 Q146.0313,510.4844 146.0313,509.2031 L146.0313,508.0469 Q146.0313,506.7188 146.6406,505.5781 Q147.2656,504.4219 148.3594,503.8125 Q149.4531,503.1875 150.6875,503.1875 Q151.4219,503.1875 152.0625,503.3594 Q152.7188,503.5156 153.2656,503.875 Z " fill="#000000"/><text fill="#000000" font-family="sans-serif" font-size="14" lengthAdjust="spacing" textLength="140" x="164.5" y="513.7285">ProposedCombination</text><line style="stroke:#181818;stroke-width:0.5;" x1="136.5" x2="306.5" y1="524" y2="524"/><line style="stroke:#181818;stroke-width:0.5;" x1="136.5" x2="306.5" y1="532" y2="532"/></g><!--class SecretCombination--><g id="elem_SecretCombination"><rect codeLine="9" fill="#F1F1F1" height="48" id="SecretCombination" rx="2.5" ry="2.5" style="stroke:#181818;stroke-width:0.5;" width="152" x="342.5" y="492"/><ellipse cx="357.5" cy="508" fill="#ADD1B2" rx="11" ry="11" style="stroke:#181818;stroke-width:1.0;"/><path d="M360.2656,503.875 Q360.4219,503.6563 360.6094,503.5469 Q360.7969,503.4375 361.0156,503.4375 Q361.3906,503.4375 361.625,503.7031 Q361.8594,503.9531 361.8594,504.5625 L361.8594,506.0156 Q361.8594,506.625 361.625,506.8906 Q361.3906,507.1563 361.0156,507.1563 Q360.6719,507.1563 360.4688,506.9531 Q360.2656,506.7656 360.1563,506.25 Q360.1094,505.8906 359.9219,505.7031 Q359.5938,505.3281 358.9844,505.1094 Q358.375,504.8906 357.75,504.8906 Q356.9844,504.8906 356.3438,505.2188 Q355.7188,505.5469 355.2188,506.2969 Q354.7344,507.0469 354.7344,508.0781 L354.7344,509.1719 Q354.7344,510.4063 355.625,511.2344 Q356.5156,512.0469 358.1094,512.0469 Q359.0469,512.0469 359.7031,511.7969 Q360.0938,511.6406 360.5156,511.2031 Q360.7813,510.9375 360.9219,510.8594 Q361.0781,510.7813 361.2813,510.7813 Q361.6094,510.7813 361.8594,511.0469 Q362.125,511.2969 362.125,511.6406 Q362.125,511.9844 361.7813,512.3906 Q361.2813,512.9688 360.4844,513.2969 Q359.4063,513.75 358.1094,513.75 Q356.5938,513.75 355.3906,513.125 Q354.4063,512.625 353.7188,511.5625 Q353.0313,510.4844 353.0313,509.2031 L353.0313,508.0469 Q353.0313,506.7188 353.6406,505.5781 Q354.2656,504.4219 355.3594,503.8125 Q356.4531,503.1875 357.6875,503.1875 Q358.4219,503.1875 359.0625,503.3594 Q359.7188,503.5156 360.2656,503.875 Z " fill="#000000"/><text fill="#000000" font-family="sans-serif" font-size="14" lengthAdjust="spacing" textLength="120" x="371.5" y="513.7285">SecretCombination</text><line style="stroke:#181818;stroke-width:0.5;" x1="343.5" x2="493.5" y1="524" y2="524"/><line style="stroke:#181818;stroke-width:0.5;" x1="343.5" x2="493.5" y1="532" y2="532"/></g><!--class Result--><g id="elem_Result"><rect codeLine="10" fill="#F1F1F1" height="48" id="Result" rx="2.5" ry="2.5" style="stroke:#181818;stroke-width:0.5;" width="72" x="529.5" y="492"/><ellipse cx="544.5" cy="508" fill="#ADD1B2" rx="11" ry="11" style="stroke:#181818;stroke-width:1.0;"/><path d="M547.2656,503.875 Q547.4219,503.6563 547.6094,503.5469 Q547.7969,503.4375 548.0156,503.4375 Q548.3906,503.4375 548.625,503.7031 Q548.8594,503.9531 548.8594,504.5625 L548.8594,506.0156 Q548.8594,506.625 548.625,506.8906 Q548.3906,507.1563 548.0156,507.1563 Q547.6719,507.1563 547.4688,506.9531 Q547.2656,506.7656 547.1563,506.25 Q547.1094,505.8906 546.9219,505.7031 Q546.5938,505.3281 545.9844,505.1094 Q545.375,504.8906 544.75,504.8906 Q543.9844,504.8906 543.3438,505.2188 Q542.7188,505.5469 542.2188,506.2969 Q541.7344,507.0469 541.7344,508.0781 L541.7344,509.1719 Q541.7344,510.4063 542.625,511.2344 Q543.5156,512.0469 545.1094,512.0469 Q546.0469,512.0469 546.7031,511.7969 Q547.0938,511.6406 547.5156,511.2031 Q547.7813,510.9375 547.9219,510.8594 Q548.0781,510.7813 548.2813,510.7813 Q548.6094,510.7813 548.8594,511.0469 Q549.125,511.2969 549.125,511.6406 Q549.125,511.9844 548.7813,512.3906 Q548.2813,512.9688 547.4844,513.2969 Q546.4063,513.75 545.1094,513.75 Q543.5938,513.75 542.3906,513.125 Q541.4063,512.625 540.7188,511.5625 Q540.0313,510.4844 540.0313,509.2031 L540.0313,508.0469 Q540.0313,506.7188 540.6406,505.5781 Q541.2656,504.4219 542.3594,503.8125 Q543.4531,503.1875 544.6875,503.1875 Q545.4219,503.1875 546.0625,503.3594 Q546.7188,503.5156 547.2656,503.875 Z " fill="#000000"/><text fill="#000000" font-family="sans-serif" font-size="14" lengthAdjust="spacing" textLength="40" x="558.5" y="513.7285">Result</text><line style="stroke:#181818;stroke-width:0.5;" x1="530.5" x2="600.5" y1="524" y2="524"/><line style="stroke:#181818;stroke-width:0.5;" x1="530.5" x2="600.5" y1="532" y2="532"/></g><!--class WinnerResult--><g id="elem_WinnerResult"><rect codeLine="11" fill="#F1F1F1" height="48" id="WinnerResult" rx="2.5" ry="2.5" style="stroke:#181818;stroke-width:0.5;" width="117" x="439" y="653"/><ellipse cx="454" cy="669" fill="#ADD1B2" rx="11" ry="11" style="stroke:#181818;stroke-width:1.0;"/><path d="M456.7656,664.875 Q456.9219,664.6563 457.1094,664.5469 Q457.2969,664.4375 457.5156,664.4375 Q457.8906,664.4375 458.125,664.7031 Q458.3594,664.9531 458.3594,665.5625 L458.3594,667.0156 Q458.3594,667.625 458.125,667.8906 Q457.8906,668.1563 457.5156,668.1563 Q457.1719,668.1563 456.9688,667.9531 Q456.7656,667.7656 456.6563,667.25 Q456.6094,666.8906 456.4219,666.7031 Q456.0938,666.3281 455.4844,666.1094 Q454.875,665.8906 454.25,665.8906 Q453.4844,665.8906 452.8438,666.2188 Q452.2188,666.5469 451.7188,667.2969 Q451.2344,668.0469 451.2344,669.0781 L451.2344,670.1719 Q451.2344,671.4063 452.125,672.2344 Q453.0156,673.0469 454.6094,673.0469 Q455.5469,673.0469 456.2031,672.7969 Q456.5938,672.6406 457.0156,672.2031 Q457.2813,671.9375 457.4219,671.8594 Q457.5781,671.7813 457.7813,671.7813 Q458.1094,671.7813 458.3594,672.0469 Q458.625,672.2969 458.625,672.6406 Q458.625,672.9844 458.2813,673.3906 Q457.7813,673.9688 456.9844,674.2969 Q455.9063,674.75 454.6094,674.75 Q453.0938,674.75 451.8906,674.125 Q450.9063,673.625 450.2188,672.5625 Q449.5313,671.4844 449.5313,670.2031 L449.5313,669.0469 Q449.5313,667.7188 450.1406,666.5781 Q450.7656,665.4219 451.8594,664.8125 Q452.9531,664.1875 454.1875,664.1875 Q454.9219,664.1875 455.5625,664.3594 Q456.2188,664.5156 456.7656,664.875 Z " fill="#000000"/><text fill="#000000" font-family="sans-serif" font-size="14" lengthAdjust="spacing" textLength="85" x="468" y="674.7285">WinnerResult</text><line style="stroke:#181818;stroke-width:0.5;" x1="440" x2="555" y1="685" y2="685"/><line style="stroke:#181818;stroke-width:0.5;" x1="440" x2="555" y1="693" y2="693"/></g><!--class Success--><g id="elem_Success"><rect codeLine="12" fill="#F1F1F1" height="48" id="Success" rx="2.5" ry="2.5" style="stroke:#181818;stroke-width:0.5;" width="85" x="591" y="653"/><ellipse cx="606" cy="669" fill="#ADD1B2" rx="11" ry="11" style="stroke:#181818;stroke-width:1.0;"/><path d="M608.7656,664.875 Q608.9219,664.6563 609.1094,664.5469 Q609.2969,664.4375 609.5156,664.4375 Q609.8906,664.4375 610.125,664.7031 Q610.3594,664.9531 610.3594,665.5625 L610.3594,667.0156 Q610.3594,667.625 610.125,667.8906 Q609.8906,668.1563 609.5156,668.1563 Q609.1719,668.1563 608.9688,667.9531 Q608.7656,667.7656 608.6563,667.25 Q608.6094,666.8906 608.4219,666.7031 Q608.0938,666.3281 607.4844,666.1094 Q606.875,665.8906 606.25,665.8906 Q605.4844,665.8906 604.8438,666.2188 Q604.2188,666.5469 603.7188,667.2969 Q603.2344,668.0469 603.2344,669.0781 L603.2344,670.1719 Q603.2344,671.4063 604.125,672.2344 Q605.0156,673.0469 606.6094,673.0469 Q607.5469,673.0469 608.2031,672.7969 Q608.5938,672.6406 609.0156,672.2031 Q609.2813,671.9375 609.4219,671.8594 Q609.5781,671.7813 609.7813,671.7813 Q610.1094,671.7813 610.3594,672.0469 Q610.625,672.2969 610.625,672.6406 Q610.625,672.9844 610.2813,673.3906 Q609.7813,673.9688 608.9844,674.2969 Q607.9063,674.75 606.6094,674.75 Q605.0938,674.75 603.8906,674.125 Q602.9063,673.625 602.2188,672.5625 Q601.5313,671.4844 601.5313,670.2031 L601.5313,669.0469 Q601.5313,667.7188 602.1406,666.5781 Q602.7656,665.4219 603.8594,664.8125 Q604.9531,664.1875 606.1875,664.1875 Q606.9219,664.1875 607.5625,664.3594 Q608.2188,664.5156 608.7656,664.875 Z " fill="#000000"/><text fill="#000000" font-family="sans-serif" font-size="14" lengthAdjust="spacing" textLength="53" x="620" y="674.7285">Success</text><line style="stroke:#181818;stroke-width:0.5;" x1="592" x2="675" y1="685" y2="685"/><line style="stroke:#181818;stroke-width:0.5;" x1="592" x2="675" y1="693" y2="693"/></g><!--class White--><g id="elem_White"><rect codeLine="13" fill="#F1F1F1" height="48" id="White" rx="2.5" ry="2.5" style="stroke:#181818;stroke-width:0.5;" width="68" x="599.5" y="761"/><ellipse cx="614.5" cy="777" fill="#ADD1B2" rx="11" ry="11" style="stroke:#181818;stroke-width:1.0;"/><path d="M617.2656,772.875 Q617.4219,772.6563 617.6094,772.5469 Q617.7969,772.4375 618.0156,772.4375 Q618.3906,772.4375 618.625,772.7031 Q618.8594,772.9531 618.8594,773.5625 L618.8594,775.0156 Q618.8594,775.625 618.625,775.8906 Q618.3906,776.1563 618.0156,776.1563 Q617.6719,776.1563 617.4688,775.9531 Q617.2656,775.7656 617.1563,775.25 Q617.1094,774.8906 616.9219,774.7031 Q616.5938,774.3281 615.9844,774.1094 Q615.375,773.8906 614.75,773.8906 Q613.9844,773.8906 613.3438,774.2188 Q612.7188,774.5469 612.2188,775.2969 Q611.7344,776.0469 611.7344,777.0781 L611.7344,778.1719 Q611.7344,779.4063 612.625,780.2344 Q613.5156,781.0469 615.1094,781.0469 Q616.0469,781.0469 616.7031,780.7969 Q617.0938,780.6406 617.5156,780.2031 Q617.7813,779.9375 617.9219,779.8594 Q618.0781,779.7813 618.2813,779.7813 Q618.6094,779.7813 618.8594,780.0469 Q619.125,780.2969 619.125,780.6406 Q619.125,780.9844 618.7813,781.3906 Q618.2813,781.9688 617.4844,782.2969 Q616.4063,782.75 615.1094,782.75 Q613.5938,782.75 612.3906,782.125 Q611.4063,781.625 610.7188,780.5625 Q610.0313,779.4844 610.0313,778.2031 L610.0313,777.0469 Q610.0313,775.7188 610.6406,774.5781 Q611.2656,773.4219 612.3594,772.8125 Q613.4531,772.1875 614.6875,772.1875 Q615.4219,772.1875 616.0625,772.3594 Q616.7188,772.5156 617.2656,772.875 Z " fill="#000000"/><text fill="#000000" font-family="sans-serif" font-size="14" lengthAdjust="spacing" textLength="36" x="628.5" y="782.7285">White</text><line style="stroke:#181818;stroke-width:0.5;" x1="600.5" x2="666.5" y1="793" y2="793"/><line style="stroke:#181818;stroke-width:0.5;" x1="600.5" x2="666.5" y1="801" y2="801"/></g><!--class Black--><g id="elem_Black"><rect codeLine="14" fill="#F1F1F1" height="48" id="Black" rx="2.5" ry="2.5" style="stroke:#181818;stroke-width:0.5;" width="66" x="481.5" y="761"/><ellipse cx="496.5" cy="777" fill="#ADD1B2" rx="11" ry="11" style="stroke:#181818;stroke-width:1.0;"/><path d="M499.2656,772.875 Q499.4219,772.6563 499.6094,772.5469 Q499.7969,772.4375 500.0156,772.4375 Q500.3906,772.4375 500.625,772.7031 Q500.8594,772.9531 500.8594,773.5625 L500.8594,775.0156 Q500.8594,775.625 500.625,775.8906 Q500.3906,776.1563 500.0156,776.1563 Q499.6719,776.1563 499.4688,775.9531 Q499.2656,775.7656 499.1563,775.25 Q499.1094,774.8906 498.9219,774.7031 Q498.5938,774.3281 497.9844,774.1094 Q497.375,773.8906 496.75,773.8906 Q495.9844,773.8906 495.3438,774.2188 Q494.7188,774.5469 494.2188,775.2969 Q493.7344,776.0469 493.7344,777.0781 L493.7344,778.1719 Q493.7344,779.4063 494.625,780.2344 Q495.5156,781.0469 497.1094,781.0469 Q498.0469,781.0469 498.7031,780.7969 Q499.0938,780.6406 499.5156,780.2031 Q499.7813,779.9375 499.9219,779.8594 Q500.0781,779.7813 500.2813,779.7813 Q500.6094,779.7813 500.8594,780.0469 Q501.125,780.2969 501.125,780.6406 Q501.125,780.9844 500.7813,781.3906 Q500.2813,781.9688 499.4844,782.2969 Q498.4063,782.75 497.1094,782.75 Q495.5938,782.75 494.3906,782.125 Q493.4063,781.625 492.7188,780.5625 Q492.0313,779.4844 492.0313,778.2031 L492.0313,777.0469 Q492.0313,775.7188 492.6406,774.5781 Q493.2656,773.4219 494.3594,772.8125 Q495.4531,772.1875 496.6875,772.1875 Q497.4219,772.1875 498.0625,772.3594 Q498.7188,772.5156 499.2656,772.875 Z " fill="#000000"/><text fill="#000000" font-family="sans-serif" font-size="14" lengthAdjust="spacing" textLength="34" x="510.5" y="782.7285">Black</text><line style="stroke:#181818;stroke-width:0.5;" x1="482.5" x2="546.5" y1="793" y2="793"/><line style="stroke:#181818;stroke-width:0.5;" x1="482.5" x2="546.5" y1="801" y2="801"/></g><!--class Color--><g id="elem_Color"><rect codeLine="15" fill="#F1F1F1" height="153.6563" id="Color" rx="2.5" ry="2.5" style="stroke:#181818;stroke-width:0.5;" width="93" x="7" y="439"/><ellipse cx="34.15" cy="455" fill="#EB937F" rx="11" ry="11" style="stroke:#181818;stroke-width:1.0;"/><path d="M33.0094,455.7969 L33.0094,458.2969 L37.3375,458.2969 L37.3375,457.375 Q37.3375,456.7656 37.5719,456.5 Q37.8219,456.2344 38.1969,456.2344 Q38.5719,456.2344 38.8063,456.5 Q39.0406,456.7656 39.0406,457.375 L39.0406,460 L31.0406,460 Q30.4156,460 30.15,459.7656 Q29.9,459.5313 29.9,459.1406 Q29.9,458.7656 30.1656,458.5313 Q30.4313,458.2969 31.0406,458.2969 L31.3063,458.2969 L31.3063,451.6406 L31.0406,451.6406 Q30.4156,451.6406 30.15,451.4063 Q29.9,451.1719 29.9,450.7813 Q29.9,450.4063 30.15,450.1719 Q30.4156,449.9375 31.0406,449.9375 L38.6656,449.9375 L38.6656,452.5313 Q38.6656,453.1406 38.4313,453.4063 Q38.2125,453.6563 37.8219,453.6563 Q37.4469,453.6563 37.2125,453.4063 Q36.9781,453.1406 36.9781,452.5313 L36.9781,451.6406 L33.0094,451.6406 L33.0094,454.0938 L34.4938,454.0938 Q34.4938,453.4375 34.6188,453.25 Q34.8844,452.8438 35.3531,452.8438 Q35.7281,452.8438 35.9625,453.1094 Q36.1969,453.3594 36.1969,453.9688 L36.1969,455.9375 Q36.1969,456.4844 36.0719,456.6719 Q35.8063,457.0625 35.3531,457.0625 Q34.8844,457.0625 34.6188,456.6563 Q34.4938,456.4688 34.4938,455.7969 L33.0094,455.7969 Z " fill="#000000"/><text fill="#000000" font-family="sans-serif" font-size="14" lengthAdjust="spacing" textLength="34" x="50.85" y="460.7285">Color</text><line style="stroke:#181818;stroke-width:0.5;" x1="8" x2="99" y1="471" y2="471"/><rect fill="none" height="6" style="stroke:#C82930;stroke-width:1.0;" width="6" x="15" y="482.3047"/><text fill="#000000" font-family="sans-serif" font-size="14" lengthAdjust="spacing" textLength="29" x="27" y="489.5332">RED</text><rect fill="none" height="6" style="stroke:#C82930;stroke-width:1.0;" width="6" x="15" y="499.9141"/><text fill="#000000" font-family="sans-serif" font-size="14" lengthAdjust="spacing" textLength="48" x="27" y="507.1426">GREEN</text><rect fill="none" height="6" style="stroke:#C82930;stroke-width:1.0;" width="6" x="15" y="517.5234"/><text fill="#000000" font-family="sans-serif" font-size="14" lengthAdjust="spacing" textLength="35" x="27" y="524.752">BLUE</text><rect fill="none" height="6" style="stroke:#C82930;stroke-width:1.0;" width="6" x="15" y="535.1328"/><text fill="#000000" font-family="sans-serif" font-size="14" lengthAdjust="spacing" textLength="58" x="27" y="542.3613">YELLOW</text><rect fill="none" height="6" style="stroke:#C82930;stroke-width:1.0;" width="6" x="15" y="552.7422"/><text fill="#000000" font-family="sans-serif" font-size="14" lengthAdjust="spacing" textLength="37" x="27" y="559.9707">CYAN</text><rect fill="none" height="6" style="stroke:#C82930;stroke-width:1.0;" width="6" x="15" y="570.3516"/><text fill="#000000" font-family="sans-serif" font-size="14" lengthAdjust="spacing" textLength="67" x="27" y="577.5801">MAGENTA</text><line style="stroke:#181818;stroke-width:0.5;" x1="8" x2="99" y1="584.6563" y2="584.6563"/></g><!--link Mastermind to Player--><g id="link_Mastermind_Player"><path codeLine="24" d="M309.2839,64.911 C297.9839,80.761 291.5,93.05 285.5,115 C275.34,152.2 286.0587,191.0128 296.2487,217.4028 " fill="none" id="Mastermind-Player" style="stroke:#181818;stroke-width:1.0;"/><polygon fill="#181818" points="316.25,55.14,309.5099,57.7035,309.2839,64.911,316.024,62.3476,316.25,55.14" style="stroke:#181818;stroke-width:1.0;"/><polygon fill="#181818" points="298.41,223,298.8996,213.1633,296.6089,218.3356,291.4366,216.045,298.41,223" style="stroke:#181818;stroke-width:1.0;"/><text fill="#000000" font-family="sans-serif" font-size="13" lengthAdjust="spacing" textLength="7" x="287.9276" y="212.3402">2</text></g><!--link Mastermind to Board--><g id="link_Mastermind_Board"><path codeLine="25" d="M358.2233,65.0393 C369.1233,81.0493 375.87,93.38 383.5,115 C410.3,190.92 416.3873,281.4034 417.8573,324.8934 " fill="none" id="Mastermind-Board" style="stroke:#181818;stroke-width:1.0;"/><polygon fill="#181818" points="351.47,55.12,351.5402,62.3308,358.2233,65.0393,358.1531,57.8286,351.47,55.12" style="stroke:#181818;stroke-width:1.0;"/><polygon fill="#181818" points="418.06,330.89,421.7537,321.76,417.8911,325.8929,413.7582,322.0303,418.06,330.89" style="stroke:#181818;stroke-width:1.0;"/></g><!--link Mastermind to Turn--><g id="link_Mastermind_Turn"><path codeLine="26" d="M334.5,67 C334.5,84.66 334.5,90.94 334.5,108.68 " fill="none" id="Mastermind-Turn" style="stroke:#181818;stroke-width:1.0;"/><polygon fill="#181818" points="334.5,55,330.5,61,334.5,67,338.5,61,334.5,55" style="stroke:#181818;stroke-width:1.0;"/><polygon fill="#181818" points="334.5,114.68,338.5,105.68,334.5,109.68,330.5,105.68,334.5,114.68" style="stroke:#181818;stroke-width:1.0;"/></g><!--link Turn to Player--><g id="link_Turn_Player"><path codeLine="27" d="M328.86,163 C324.53,180.66 319.9989,199.1126 315.6489,216.8526 " fill="none" id="Turn-to-Player" style="stroke:#181818;stroke-width:1.0;"/><polygon fill="#181818" points="314.22,222.68,320.2483,214.8916,315.4108,217.8239,312.4785,212.9863,314.22,222.68" style="stroke:#181818;stroke-width:1.0;"/><text fill="#000000" font-family="sans-serif" font-size="13" lengthAdjust="spacing" textLength="7" x="307.7611" y="212.34">2</text></g><!--link Board to SecretCombination--><g id="link_Board_SecretCombination"><path codeLine="28" d="M418.5,391.12 C418.5,421.27 418.5,455.69 418.5,485.85 " fill="none" id="Board-SecretCombination" style="stroke:#181818;stroke-width:1.0;"/><polygon fill="#181818" points="418.5,379.12,414.5,385.12,418.5,391.12,422.5,385.12,418.5,379.12" style="stroke:#181818;stroke-width:1.0;"/><polygon fill="#181818" points="418.5,491.85,422.5,482.85,418.5,486.85,414.5,482.85,418.5,491.85" style="stroke:#181818;stroke-width:1.0;"/></g><!--link Board to ProposedCombination--><g id="link_Board_ProposedCombination"><path codeLine="29" d="M380.5126,386.6574 C343.1626,416.8074 292.2191,457.9218 254.8491,488.0818 " fill="none" id="Board-ProposedCombination" style="stroke:#181818;stroke-width:1.0;"/><polygon fill="none" points="389.85,379.12,382.6688,379.7762,380.5126,386.6574,387.6938,386.0012,389.85,379.12" style="stroke:#181818;stroke-width:1.0;"/><polygon fill="#181818" points="250.18,491.85,259.6958,489.3103,254.0709,488.7098,254.6715,483.0849,250.18,491.85" style="stroke:#181818;stroke-width:1.0;"/><text fill="#000000" font-family="sans-serif" font-size="13" lengthAdjust="spacing" textLength="29" x="224.8136" y="481.1517">0..10</text></g><!--link Board to Result--><g id="link_Board_Result"><path codeLine="30" d="M457.4103,386.6332 C476.8003,402.4432 492.79,416.9 512.5,439 C527.17,455.45 538.0743,471.0073 548.0643,486.6073 " fill="none" id="Board-Result" style="stroke:#181818;stroke-width:1.0;"/><polygon fill="none" points="448.11,379.05,450.2324,385.9417,457.4103,386.6332,455.2879,379.7415,448.11,379.05" style="stroke:#181818;stroke-width:1.0;"/><polygon fill="#181818" points="551.3,491.66,549.8149,481.9237,548.6036,487.4494,543.078,486.238,551.3,491.66" style="stroke:#181818;stroke-width:1.0;"/><text fill="#000000" font-family="sans-serif" font-size="13" lengthAdjust="spacing" textLength="29" x="515.3044" y="481.3151">0..10</text></g><!--reverse link Success to Black--><g id="link_Success_Black"><path codeLine="31" d="M594.2409,712.9745 C574.4209,730.6345 560.59,742.94 540.68,760.68 " fill="none" id="Success-backto-Black" style="stroke:#181818;stroke-width:1.0;"/><polygon fill="none" points="607.68,701,590.2493,708.4948,598.2324,717.4542,607.68,701" style="stroke:#181818;stroke-width:1.0;"/></g><!--reverse link Success to White--><g id="link_Success_White"><path codeLine="32" d="M633.5,719 C633.5,736.66 633.5,742.94 633.5,760.68 " fill="none" id="Success-backto-White" style="stroke:#181818;stroke-width:1.0;"/><polygon fill="none" points="633.5,701,627.5,719,639.5,719,633.5,701" style="stroke:#181818;stroke-width:1.0;"/></g><!--link Result to Success--><g id="link_Result_Success"><path codeLine="33" d="M580.1073,551.1539 C592.9973,581.3039 608.3405,617.1734 621.2405,647.3334 " fill="none" id="Result-Success" style="stroke:#181818;stroke-width:1.0;"/><polygon fill="#181818" points="575.39,540.12,574.0707,547.2094,580.1073,551.1539,581.4266,544.0645,575.39,540.12" style="stroke:#181818;stroke-width:1.0;"/><polygon fill="#181818" points="623.6,652.85,623.7384,643.0021,621.6337,648.2529,616.383,646.1482,623.6,652.85" style="stroke:#181818;stroke-width:1.0;"/><text fill="#000000" font-family="sans-serif" font-size="13" lengthAdjust="spacing" textLength="22" x="596.2444" y="642.1517">2..4</text></g><!--reverse link Result to WinnerResult--><g id="link_Result_WinnerResult"><path codeLine="34" d="M548.534,556.6709 C535.644,586.8209 520.3,622.69 507.4,652.85 " fill="none" id="Result-backto-WinnerResult" style="stroke:#181818;stroke-width:1.0;"/><polygon fill="none" points="555.61,540.12,543.0171,554.3122,554.051,559.0295,555.61,540.12" style="stroke:#181818;stroke-width:1.0;"/></g><!--link WinnerResult to Black--><g id="link_WinnerResult_Black"><path codeLine="35" d="M503.0888,712.8488 C505.9188,730.5088 506.9715,737.0154 509.8115,754.7554 " fill="none" id="WinnerResult-Black" style="stroke:#181818;stroke-width:1.0;"/><polygon fill="#181818" points="501.19,701,498.1898,707.5573,503.0888,712.8488,506.089,706.2915,501.19,701" style="stroke:#181818;stroke-width:1.0;"/><polygon fill="#181818" points="510.76,760.68,513.287,751.1609,509.9696,755.7429,505.3876,752.4255,510.76,760.68" style="stroke:#181818;stroke-width:1.0;"/><text fill="#000000" font-family="sans-serif" font-size="13" lengthAdjust="spacing" textLength="7" x="501.9953" y="750.34">4</text></g><!--reverse link Combination to ProposedCombination--><g id="link_Combination_ProposedCombination"><path codeLine="36" d="M156.5704,394.9541 C172.8704,425.1041 192.67,461.69 208.98,491.85 " fill="none" id="Combination-backto-ProposedCombination" style="stroke:#181818;stroke-width:1.0;"/><polygon fill="none" points="148.01,379.12,151.2924,397.8076,161.8484,392.1007,148.01,379.12" style="stroke:#181818;stroke-width:1.0;"/></g><!--reverse link Combination to SecretCombination--><g id="link_Combination_SecretCombination"><path codeLine="37" d="M207.9851,382.405 C246.6851,397.325 281.95,413.1 324.5,439 C349.6,454.28 375.36,475.58 393.55,491.74 " fill="none" id="Combination-backto-SecretCombination" style="stroke:#181818;stroke-width:1.0;"/><polygon fill="none" points="191.19,375.93,205.8267,388.0034,210.1434,376.8066,191.19,375.93" style="stroke:#181818;stroke-width:1.0;"/></g><!--link Combination to Color--><g id="link_Combination_Color"><path codeLine="38" d="M118.0766,389.7836 C109.8966,405.6336 106.798,411.6363 95.618,433.3363 " fill="none" id="Combination-Color" style="stroke:#181818;stroke-width:1.0;"/><polygon fill="#181818" points="123.58,379.12,117.2738,382.6174,118.0766,389.7836,124.3829,386.2863,123.58,379.12" style="stroke:#181818;stroke-width:1.0;"/><polygon fill="#181818" points="92.87,438.67,100.5478,432.5014,95.16,434.2252,93.4361,428.8374,92.87,438.67" style="stroke:#181818;stroke-width:1.0;"/><text fill="#000000" font-family="sans-serif" font-size="13" lengthAdjust="spacing" textLength="7" x="89.2889" y="428.0652">4</text></g><!--reverse link Player to MakerPlayer--><g id="link_Player_MakerPlayer"><path codeLine="39" d="M361.0189,271.5869 C400.6589,289.3969 448.21,310.75 493.09,330.91 " fill="none" id="Player-backto-MakerPlayer" style="stroke:#181818;stroke-width:1.0;"/><polygon fill="none" points="344.6,264.21,358.56,277.0599,363.4779,266.1139,344.6,264.21" style="stroke:#181818;stroke-width:1.0;"/></g><!--reverse link Player to BreakerPlayer--><g id="link_Player_BreakerPlayer"><path codeLine="40" d="M300.4503,288.6585 C296.9603,306.3185 295.63,312.94 292.12,330.68 " fill="none" id="Player-backto-BreakerPlayer" style="stroke:#181818;stroke-width:1.0;"/><polygon fill="none" points="303.94,271,294.5641,287.4952,306.3365,289.8217,303.94,271" style="stroke:#181818;stroke-width:1.0;"/></g><!--link MakerPlayer to SecretCombination--><g id="link_MakerPlayer_SecretCombination"><path codeLine="41" d="M526.18,379.12 C502.29,409.27 464.4665,456.9875 440.5665,487.1475 " fill="none" id="MakerPlayer-to-SecretCombination" style="stroke:#181818;stroke-width:1.0;"/><polygon fill="#181818" points="436.84,491.85,445.5647,487.2805,439.9454,487.9312,439.2947,482.3119,436.84,491.85" style="stroke:#181818;stroke-width:1.0;"/></g><!--link MakerPlayer to Result--><g id="link_MakerPlayer_Result"><path codeLine="42" d="M547.55,379.12 C551.54,409.27 557.675,455.7416 561.655,485.9016 " fill="none" id="MakerPlayer-to-Result" style="stroke:#181818;stroke-width:1.0;stroke-dasharray:7.0,7.0;"/><polygon fill="#181818" points="562.44,491.85,565.2282,482.404,561.7859,486.893,557.2969,483.4507,562.44,491.85" style="stroke:#181818;stroke-width:1.0;"/></g><!--link BreakerPlayer to ProposedCombination--><g id="link_BreakerPlayer_ProposedCombination"><path codeLine="43" d="M277.9,379.12 C265.39,409.27 245.9304,456.1485 233.4104,486.3085 " fill="none" id="BreakerPlayer-to-ProposedCombination" style="stroke:#181818;stroke-width:1.0;"/><polygon fill="#181818" points="231.11,491.85,238.2549,485.0713,233.027,487.2321,230.8662,482.0042,231.11,491.85" style="stroke:#181818;stroke-width:1.0;"/><text fill="#000000" font-family="sans-serif" font-size="13" lengthAdjust="spacing" textLength="29" x="200.8569" y="481.1517">0..10</text></g><!--SRC=[TL9TJyCW57sMNq7wQ0APPezcIJV9NjgvT3FB7f6IsAm50ssCKV-xykLWp1VWddlkrxcmdceDQwf7hePEj81PO3yfuPzBILM0jptzuCeRDJrnbI1BnJDi9OUNJj2nao7XLiatgNcRUtQSAJxcUCFrr8_UE7H2S9L0kuanhdKWl7OZ3ntrb9q05zFmsqWl5Vm4DmWsvD5SwuQGZNaigsTYxYEfggU3UQsEfVNKvPfizYNu1k2i4Rn5Q06B-y8FUkbnYbsYLb9pGDJATv5ai16EbclWdDBMd65yDokkAPYpl4HU7FZmXP3N8u6SN8uS9iDuNWHHlSTnO-rZmmVE2rSWQim5Nkiu8-MZnvHGmUuHEE5SNFmHOppzZX7hRmDvnPY53GilmlTBqfsN-EzAVW00]--></g></svg>