<?xml version="1.0" encoding="us-ascii" standalone="no"?><svg xmlns="http://www.w3.org/2000/svg" xmlns:xlink="http://www.w3.org/1999/xlink" contentStyleType="text/css" height="797px" preserveAspectRatio="none" style="width:322px;height:797px;background:#FFFFFF;" version="1.1" viewBox="0 0 322 797" width="322px" zoomAndPan="magnify"><defs/><g><g id="INITIAL"><rect fill="#F1F1F1" height="50" rx="12.5" ry="12.5" style="stroke:#181818;stroke-width:0.5;" width="64" x="170.32" y="87"/><line style="stroke:#181818;stroke-width:0.5;" x1="170.32" x2="234.32" y1="114.6094" y2="114.6094"/><text fill="#000000" font-family="sans-serif" font-size="14" lengthAdjust="spacing" textLength="44" x="180.32" y="106.5332">INITIAL</text></g><g id="IN_GAME"><rect fill="#F1F1F1" height="50" rx="12.5" ry="12.5" style="stroke:#181818;stroke-width:0.5;" width="80" x="116.32" y="215"/><line style="stroke:#181818;stroke-width:0.5;" x1="116.32" x2="196.32" y1="242.6094" y2="242.6094"/><text fill="#000000" font-family="sans-serif" font-size="14" lengthAdjust="spacing" textLength="60" x="126.32" y="234.5332">IN_GAME</text></g><g id="OUT_GAME"><rect fill="#F1F1F1" height="50" rx="12.5" ry="12.5" style="stroke:#181818;stroke-width:0.5;" width="97" x="98.82" y="445"/><line style="stroke:#181818;stroke-width:0.5;" x1="98.82" x2="195.82" y1="472.6094" y2="472.6094"/><text fill="#000000" font-family="sans-serif" font-size="14" lengthAdjust="spacing" textLength="77" x="108.82" y="464.5332">OUT_GAME</text></g><g id="EXIT"><rect fill="#F1F1F1" height="50" rx="12.5" ry="12.5" style="stroke:#181818;stroke-width:0.5;" width="50" x="173.32" y="658"/><line style="stroke:#181818;stroke-width:0.5;" x1="173.32" x2="223.32" y1="685.6094" y2="685.6094"/><text fill="#000000" font-family="sans-serif" font-size="14" lengthAdjust="spacing" textLength="29" x="183.82" y="677.5332">EXIT</text></g><g id="elem_if_finished"><polygon fill="#F1F1F1" points="147.32,343,159.32,355,147.32,367,135.32,355,147.32,343" style="stroke:#181818;stroke-width:0.5;"/></g><g id="elem_if_resumed"><polygon fill="#F1F1F1" points="198.32,573,210.32,585,198.32,597,186.32,585,198.32,573" style="stroke:#181818;stroke-width:0.5;"/></g><ellipse cx="202.32" cy="16" fill="#222222" rx="10" ry="10" style="stroke:#222222;stroke-width:1.0;"/><ellipse cx="198.32" cy="780" fill="none" rx="11" ry="11" style="stroke:#222222;stroke-width:1.0;"/><ellipse cx="198.32" cy="780" fill="#222222" rx="6" ry="6" style="stroke:#222222;stroke-width:1.0;"/><!--link *start* to INITIAL--><g id="link_*start*_INITIAL"><path d="M202.32,26.01 C202.32,39.89 202.32,60.97 202.32,80.84 " fill="none" id="*start*-to-INITIAL" style="stroke:#181818;stroke-width:1.0;"/><polygon fill="#181818" points="202.32,86.84,206.32,77.84,202.32,81.84,198.32,77.84,202.32,86.84" style="stroke:#181818;stroke-width:1.0;"/></g><!--link INITIAL to IN_GAME--><g id="link_INITIAL_IN_GAME"><path d="M193.45,137.29 C185.3,159.61 175.3582,186.8541 167.2182,209.1441 " fill="none" id="INITIAL-to-IN_GAME" style="stroke:#181818;stroke-width:1.0;"/><polygon fill="#181818" points="165.16,214.78,172.0046,207.6982,166.8751,210.0834,164.49,204.954,165.16,214.78" style="stroke:#181818;stroke-width:1.0;"/><text fill="#000000" font-family="sans-serif" font-size="13" lengthAdjust="spacing" textLength="28" x="183.32" y="181.4951">Start</text></g><!--link IN_GAME to if_finished--><g id="link_IN_GAME_if_finished"><path d="M116.22,246.79 C87.51,253.26 50.78,266.82 32.32,295 C6,335.17 98.0754,348.7588 130.9554,352.3488 " fill="none" id="IN_GAME-to-if_finished" style="stroke:#181818;stroke-width:1.0;"/><polygon fill="#181818" points="136.92,353,128.4073,348.0468,131.9495,352.4573,127.539,355.9995,136.92,353" style="stroke:#181818;stroke-width:1.0;"/><text fill="#000000" font-family="sans-serif" font-size="13" lengthAdjust="spacing" textLength="122" x="33.32" y="309.4951">Propose combination</text></g><!--link if_finished to IN_GAME--><g id="link_if_finished_IN_GAME"><path d="M150.66,346.01 C153.87,337.87 158.49,324.81 160.32,313 C162.77,297.16 162.4577,285.1205 160.8377,271.0805 " fill="none" id="if_finished-to-IN_GAME" style="stroke:#181818;stroke-width:1.0;"/><polygon fill="#181818" points="160.15,265.12,157.208,274.5192,160.7231,270.087,165.1553,273.6022,160.15,265.12" style="stroke:#181818;stroke-width:1.0;"/></g><!--link if_finished to OUT_GAME--><g id="link_if_finished_OUT_GAME"><path d="M147.32,367.25 C147.32,385.22 147.32,414.83 147.32,438.79 " fill="none" id="if_finished-to-OUT_GAME" style="stroke:#181818;stroke-width:1.0;"/><polygon fill="#181818" points="147.32,444.79,151.32,435.79,147.32,439.79,143.32,435.79,147.32,444.79" style="stroke:#181818;stroke-width:1.0;"/><text fill="#000000" font-family="sans-serif" font-size="13" lengthAdjust="spacing" textLength="52" x="148.32" y="411.4951">[finished]</text></g><!--link OUT_GAME to if_resumed--><g id="link_OUT_GAME_if_resumed"><path d="M154.69,495.16 C159.36,509.38 165.9,527.54 173.32,543 C179.37,555.63 184.8815,564.3748 190.2615,572.3048 " fill="none" id="OUT_GAME-to-if_resumed" style="stroke:#181818;stroke-width:1.0;"/><polygon fill="#181818" points="193.63,577.27,191.8873,567.5766,190.8229,573.1324,185.2671,572.0679,193.63,577.27" style="stroke:#181818;stroke-width:1.0;"/><text fill="#000000" font-family="sans-serif" font-size="13" lengthAdjust="spacing" textLength="48" x="174.32" y="539.4951">Resume</text></g><!--link if_resumed to INITIAL--><g id="link_if_resumed_INITIAL"><path d="M203.5,578 C209.89,570.34 220.71,556.46 227.32,543 C242.05,512.96 249.32,504.46 249.32,471 C249.32,239 249.32,239 249.32,239 C249.32,201.64 233.8861,166.9981 220.1161,142.3481 " fill="none" id="if_resumed-to-INITIAL" style="stroke:#181818;stroke-width:1.0;"/><polygon fill="#181818" points="217.19,137.11,218.0871,146.9179,219.6284,141.4751,225.0713,143.0164,217.19,137.11" style="stroke:#181818;stroke-width:1.0;"/><text fill="#000000" font-family="sans-serif" font-size="13" lengthAdjust="spacing" textLength="64" x="250.32" y="360.4951">[continued]</text></g><!--link if_resumed to EXIT--><g id="link_if_resumed_EXIT"><path d="M198.32,597.01 C198.32,611.79 198.32,632.43 198.32,651.95 " fill="none" id="if_resumed-to-EXIT" style="stroke:#181818;stroke-width:1.0;"/><polygon fill="#181818" points="198.32,657.95,202.32,648.95,198.32,652.95,194.32,648.95,198.32,657.95" style="stroke:#181818;stroke-width:1.0;"/></g><!--link EXIT to *end*--><g id="link_EXIT_*end*"><path d="M198.32,708.46 C198.32,728.04 198.32,748.49 198.32,762.8 " fill="none" id="EXIT-to-*end*" style="stroke:#181818;stroke-width:1.0;"/><polygon fill="#181818" points="198.32,768.8,202.32,759.8,198.32,763.8,194.32,759.8,198.32,768.8" style="stroke:#181818;stroke-width:1.0;"/></g><!--SRC=[PL1B2iCW4DrxYbaNSW49WIn24VgZJQ4GGaYj8RE85ZNtRo9ZQzkDpdiZxwFplLSW3g8MvOuvGjsst5U4ZjSwXTLDr3JYq0seqOtg0NakHuDI5SLdQPMRf-yTQpOjP5dnTgIRk634uU9xwnd1i4giE9oiUHgdG9hfZhhtQ3HBioHQVtnimw69VCiY6QqeE8Tp65ZI9Sc-I4YZFUfvrVXv4xvfFG9QMhy0]--></g></svg>