<?xml version="1.0" encoding="us-ascii" standalone="no"?><svg xmlns="http://www.w3.org/2000/svg" xmlns:xlink="http://www.w3.org/1999/xlink" contentStyleType="text/css" height="184px" preserveAspectRatio="none" style="width:522px;height:184px;background:#FFFFFF;" version="1.1" viewBox="0 0 522 184" width="522px" zoomAndPan="magnify"><defs/><g><!--entity Player--><g id="elem_Player"><ellipse cx="26" cy="62" fill="#F1F1F1" rx="8" ry="8" style="stroke:#181818;stroke-width:0.5;"/><path d="M26,70 L26,97 M13,78 L39,78 M26,97 L13,112 M26,97 L39,112 " fill="none" style="stroke:#181818;stroke-width:0.5;"/><text fill="#000000" font-family="sans-serif" font-size="14" lengthAdjust="spacing" textLength="40" x="6" y="128.0332">Player</text></g><g id="elem_Start"><ellipse cx="195.1985" cy="21.4517" fill="#F1F1F1" rx="32.6985" ry="15.4517" style="stroke:#181818;stroke-width:0.5;"/><text fill="#000000" font-family="sans-serif" font-size="14" lengthAdjust="spacing" textLength="30" x="180.1985" y="25.1802">Start</text></g><g id="elem_Board"><ellipse cx="451.341" cy="57.6182" fill="#F1F1F1" rx="65.341" ry="15.6182" style="stroke:#181818;stroke-width:0.5;"/><text fill="#000000" font-family="sans-serif" font-size="14" lengthAdjust="spacing" textLength="75" x="410.841" y="62.1348">Show board</text></g><g id="elem_Propose"><ellipse cx="194.8193" cy="92.4639" fill="#F1F1F1" rx="87.8193" ry="19.9639" style="stroke:#181818;stroke-width:0.5;"/><text fill="#000000" font-family="sans-serif" font-size="14" lengthAdjust="spacing" textLength="133" x="128.3193" y="96.1924">Propose combination</text></g><g id="elem_Resume"><ellipse cx="194.861" cy="163.4809" fill="#F1F1F1" rx="48.361" ry="15.4809" style="stroke:#181818;stroke-width:0.5;"/><text fill="#000000" font-family="sans-serif" font-size="14" lengthAdjust="spacing" textLength="52" x="166.6681" y="167.8128">Resume</text></g><!--link Player to Start--><g id="link_Player_Start"><path d="M46.29,81.59 C55.21,76.72 66.01,71.06 76,66.5 C106.91,52.38 137.9874,40.8436 162.1674,32.3736 " fill="none" id="Player-to-Start" style="stroke:#181818;stroke-width:1.0;"/><polygon fill="#181818" points="167.83,30.39,158.0137,29.5903,163.1111,32.043,160.6584,37.1404,167.83,30.39" style="stroke:#181818;stroke-width:1.0;"/></g><!--link Player to Propose--><g id="link_Player_Propose"><path d="M46.16,92.5 C61.41,92.5 77.92,92.5 100.81,92.5 " fill="none" id="Player-to-Propose" style="stroke:#181818;stroke-width:1.0;"/><polygon fill="#181818" points="106.81,92.5,97.81,88.5,101.81,92.5,97.81,96.5,106.81,92.5" style="stroke:#181818;stroke-width:1.0;"/></g><!--link Player to Resume--><g id="link_Player_Resume"><path d="M46.2,102.16 C62.28,110.12 85.92,121.52 107,130.5 C124.98,138.17 139.7684,143.8899 156.3084,149.9699 " fill="none" id="Player-to-Resume" style="stroke:#181818;stroke-width:1.0;"/><polygon fill="#181818" points="161.94,152.04,154.8727,145.1804,157.247,150.3149,152.1126,152.6892,161.94,152.04" style="stroke:#181818;stroke-width:1.0;"/></g><!--link Start to Board--><g id="link_Start_Board"><path d="M226.45,25.81 C268.01,31.69 337.2992,41.4894 389.0292,48.8094 " fill="none" id="Start-to-Board" style="stroke:#181818;stroke-width:1.0;stroke-dasharray:7.0,7.0;"/><polygon fill="#181818" points="394.97,49.65,386.6192,44.4285,390.0193,48.9495,385.4983,52.3496,394.97,49.65" style="stroke:#181818;stroke-width:1.0;"/><text fill="#000000" font-family="sans-serif" font-size="13" lengthAdjust="spacing" textLength="41" x="314" y="34.9951">include</text></g><!--link Propose to Board--><g id="link_Propose_Board"><path d="M283.2,93.34 C306.94,92.45 332.57,90.47 356,86.5 C376.14,83.09 392.2896,78.5222 409.8996,72.5322 " fill="none" id="Propose-to-Board" style="stroke:#181818;stroke-width:1.0;stroke-dasharray:7.0,7.0;"/><polygon fill="#181818" points="415.58,70.6,405.7713,69.7113,410.8463,72.2101,408.3475,77.2852,415.58,70.6" style="stroke:#181818;stroke-width:1.0;"/><text fill="#000000" font-family="sans-serif" font-size="13" lengthAdjust="spacing" textLength="41" x="314" y="82.9951">include</text></g><!--SRC=[ROun3eCm34NtdCBA3WVemD0Je782axWbKeWhnmZrzYKb88PEjl-p_N-afu8oI7XD2Zu8EGsS33fbWJxYXyGicHncWa5HrEmYD4rNXGFV6SK3Ph33n2kCPRGdxONVlDN2ZzxnF8Q4nT5U_rP-tZueBpDTDwho2m2jvpMrtHxW1Y6vkFXjlRhynry0]--></g></svg>