<?xml version="1.0" encoding="us-ascii" standalone="no"?><svg xmlns="http://www.w3.org/2000/svg" xmlns:xlink="http://www.w3.org/1999/xlink" contentStyleType="text/css" height="1531px" preserveAspectRatio="none" style="width:818px;height:1531px;background:#FFFFFF;" version="1.1" viewBox="0 0 818 1531" width="818px" zoomAndPan="magnify"><defs/><g><g id="IN_GAME"><rect fill="#F1F1F1" height="50" rx="12.5" ry="12.5" style="stroke:#181818;stroke-width:0.5;" width="80" x="209.78" y="87"/><line style="stroke:#181818;stroke-width:0.5;" x1="209.78" x2="289.78" y1="114.6094" y2="114.6094"/><text fill="#000000" font-family="sans-serif" font-size="14" lengthAdjust="spacing" textLength="60" x="219.78" y="106.5332">IN_GAME</text></g><g id="requested"><rect fill="#F1F1F1" height="50" rx="12.5" ry="12.5" style="stroke:#181818;stroke-width:0.5;" width="50" x="224.78" y="215"/><line style="stroke:#181818;stroke-width:0.5;" x1="224.78" x2="274.78" y1="242.6094" y2="242.6094"/><text fill="#000000" font-family="sans-serif" font-size="14" lengthAdjust="spacing" textLength="4" x="247.78" y="234.5332">&#160;</text></g><g id="allowed"><rect fill="#F1F1F1" height="50" rx="12.5" ry="12.5" style="stroke:#181818;stroke-width:0.5;" width="50" x="224.78" y="343"/><line style="stroke:#181818;stroke-width:0.5;" x1="224.78" x2="274.78" y1="370.6094" y2="370.6094"/><text fill="#000000" font-family="sans-serif" font-size="14" lengthAdjust="spacing" textLength="4" x="247.78" y="362.5332">&#160;</text></g><g id="error"><rect fill="#F1F1F1" height="50" rx="12.5" ry="12.5" style="stroke:#181818;stroke-width:0.5;" width="50" x="86.78" y="722"/><line style="stroke:#181818;stroke-width:0.5;" x1="86.78" x2="136.78" y1="749.6094" y2="749.6094"/><text fill="#000000" font-family="sans-serif" font-size="14" lengthAdjust="spacing" textLength="4" x="109.78" y="741.5332">&#160;</text></g><g id="ShowBoard"><rect fill="#F1F1F1" height="50" rx="12.5" ry="12.5" style="stroke:#181818;stroke-width:0.5;" width="95" x="390.28" y="642"/><line style="stroke:#181818;stroke-width:0.5;" x1="390.28" x2="485.28" y1="669.6094" y2="669.6094"/><text fill="#000000" font-family="sans-serif" font-size="14" lengthAdjust="spacing" textLength="75" x="400.28" y="661.5332">Show board</text></g><g id="winner"><rect fill="#F1F1F1" height="50" rx="12.5" ry="12.5" style="stroke:#181818;stroke-width:0.5;" width="50" x="372.78" y="1104"/><line style="stroke:#181818;stroke-width:0.5;" x1="372.78" x2="422.78" y1="1131.6094" y2="1131.6094"/><text fill="#000000" font-family="sans-serif" font-size="14" lengthAdjust="spacing" textLength="4" x="395.78" y="1123.5332">&#160;</text></g><g id="looser"><rect fill="#F1F1F1" height="50" rx="12.5" ry="12.5" style="stroke:#181818;stroke-width:0.5;" width="50" x="569.78" y="1104"/><line style="stroke:#181818;stroke-width:0.5;" x1="569.78" x2="619.78" y1="1131.6094" y2="1131.6094"/><text fill="#000000" font-family="sans-serif" font-size="14" lengthAdjust="spacing" textLength="4" x="592.78" y="1123.5332">&#160;</text></g><g id="finished"><rect fill="#F1F1F1" height="50" rx="12.5" ry="12.5" style="stroke:#181818;stroke-width:0.5;" width="50" x="343.78" y="1264"/><line style="stroke:#181818;stroke-width:0.5;" x1="343.78" x2="393.78" y1="1291.6094" y2="1291.6094"/><text fill="#000000" font-family="sans-serif" font-size="14" lengthAdjust="spacing" textLength="4" x="366.78" y="1283.5332">&#160;</text></g><g id="last"><rect fill="#F1F1F1" height="50" rx="12.5" ry="12.5" style="stroke:#181818;stroke-width:0.5;" width="50" x="124.78" y="940"/><line style="stroke:#181818;stroke-width:0.5;" x1="124.78" x2="174.78" y1="967.6094" y2="967.6094"/><text fill="#000000" font-family="sans-serif" font-size="14" lengthAdjust="spacing" textLength="4" x="147.78" y="959.5332">&#160;</text></g><g id="elem_is_correct"><polygon fill="#F1F1F1" points="249.78,471,261.78,483,249.78,495,237.78,483,249.78,471" style="stroke:#181818;stroke-width:0.5;"/></g><g id="elem_is_finished"><polygon fill="#F1F1F1" points="429.78,802,441.78,814,429.78,826,417.78,814,429.78,802" style="stroke:#181818;stroke-width:0.5;"/></g><g id="elem_is_winner"><polygon fill="#F1F1F1" points="429.78,953,441.78,965,429.78,977,417.78,965,429.78,953" style="stroke:#181818;stroke-width:0.5;"/></g><g id="OUT_GAME"><rect fill="#F1F1F1" height="50" rx="12.5" ry="12.5" style="stroke:#181818;stroke-width:0.5;" width="97" x="298.28" y="1392"/><line style="stroke:#181818;stroke-width:0.5;" x1="298.28" x2="395.28" y1="1419.6094" y2="1419.6094"/><text fill="#000000" font-family="sans-serif" font-size="14" lengthAdjust="spacing" textLength="77" x="308.28" y="1411.5332">OUT_GAME</text></g><g id="IN_GAME_AGAIN"><rect fill="#F1F1F1" height="50" rx="12.5" ry="12.5" style="stroke:#181818;stroke-width:0.5;" width="80" x="117.78" y="1184"/><line style="stroke:#181818;stroke-width:0.5;" x1="117.78" x2="197.78" y1="1211.6094" y2="1211.6094"/><text fill="#000000" font-family="sans-serif" font-size="14" lengthAdjust="spacing" textLength="60" x="127.78" y="1203.5332">IN_GAME</text></g><ellipse cx="249.78" cy="16" fill="#222222" rx="10" ry="10" style="stroke:#222222;stroke-width:1.0;"/><ellipse cx="235.78" cy="1514" fill="none" rx="11" ry="11" style="stroke:#222222;stroke-width:1.0;"/><ellipse cx="235.78" cy="1514" fill="#222222" rx="6" ry="6" style="stroke:#222222;stroke-width:1.0;"/><!--link *start* to IN_GAME--><g id="link_*start*_IN_GAME"><path d="M249.78,26.01 C249.78,39.89 249.78,60.97 249.78,80.84 " fill="none" id="*start*-to-IN_GAME" style="stroke:#181818;stroke-width:1.0;"/><polygon fill="#181818" points="249.78,86.84,253.78,77.84,249.78,81.84,245.78,77.84,249.78,86.84" style="stroke:#181818;stroke-width:1.0;"/></g><!--link IN_GAME to requested--><g id="link_IN_GAME_requested"><path d="M249.78,137.29 C249.78,159.61 249.78,186.49 249.78,208.78 " fill="none" id="IN_GAME-to-requested" style="stroke:#181818;stroke-width:1.0;"/><polygon fill="#181818" points="249.78,214.78,253.78,205.78,249.78,209.78,245.78,205.78,249.78,214.78" style="stroke:#181818;stroke-width:1.0;"/><text fill="#000000" font-family="sans-serif" font-size="13" lengthAdjust="spacing" textLength="226" x="250.78" y="181.4951">Player requests propose a combination</text></g><!--link requested to allowed--><g id="link_requested_allowed"><path d="M249.78,265.29 C249.78,287.61 249.78,314.49 249.78,336.78 " fill="none" id="requested-to-allowed" style="stroke:#181818;stroke-width:1.0;"/><polygon fill="#181818" points="249.78,342.78,253.78,333.78,249.78,337.78,245.78,333.78,249.78,342.78" style="stroke:#181818;stroke-width:1.0;"/><text fill="#000000" font-family="sans-serif" font-size="13" lengthAdjust="spacing" textLength="241" x="250.78" y="309.4951">System requests a proposed combination</text></g><!--link allowed to is_correct--><g id="link_allowed_is_correct"><path d="M249.78,393.24 C249.78,417.24 249.78,446.9 249.78,464.84 " fill="none" id="allowed-to-is_correct" style="stroke:#181818;stroke-width:1.0;"/><polygon fill="#181818" points="249.78,470.84,253.78,461.84,249.78,465.84,245.78,461.84,249.78,470.84" style="stroke:#181818;stroke-width:1.0;"/><text fill="#000000" font-family="sans-serif" font-size="13" lengthAdjust="spacing" textLength="243" x="250.78" y="437.4951">Player introduces a proposed combination</text></g><!--link is_correct to ShowBoard--><g id="link_is_correct_ShowBoard"><path d="M260.12,485.03 C293.3,488.54 396.21,501.19 417.78,525 C446.75,556.97 446.2331,604.9125 442.5131,635.9925 " fill="none" id="is_correct-to-ShowBoard" style="stroke:#181818;stroke-width:1.0;"/><polygon fill="#181818" points="441.8,641.95,446.8412,633.4892,442.3942,636.9854,438.8979,632.5384,441.8,641.95" style="stroke:#181818;stroke-width:1.0;"/></g><!--link is_correct to error--><g id="link_is_correct_error"><path d="M239.17,484.53 C201.86,486.62 77.56,495.72 53.78,525 C6,583.8 58.3127,672.9975 89.7327,716.9875 " fill="none" id="is_correct-to-error" style="stroke:#181818;stroke-width:1.0;"/><polygon fill="#181818" points="93.22,721.87,91.244,712.2214,90.3139,717.8013,84.734,716.8712,93.22,721.87" style="stroke:#181818;stroke-width:1.0;"/><text fill="#000000" font-family="sans-serif" font-size="13" lengthAdjust="spacing" textLength="189" x="137.28" y="539.4951">[incorrect proposed combination]</text><path d="M58.78,548.3516 L58.78,607.3516 L404.78,607.3516 L404.78,558.3516 L394.78,548.3516 L58.78,548.3516 " fill="#FEFFDD" style="stroke:#181818;stroke-width:0.5;"/><path d="M394.78,548.3516 L394.78,558.3516 L404.78,558.3516 L394.78,548.3516 " fill="#FEFFDD" style="stroke:#181818;stroke-width:0.5;"/><text fill="#000000" font-family="sans-serif" font-size="13" lengthAdjust="spacing" textLength="229" x="64.78" y="566.8467">proposedCombination.colors.length != 4</text><text fill="#000000" font-family="sans-serif" font-size="13" lengthAdjust="spacing" textLength="290" x="64.78" y="583.1982">proposedCombination.colors at least one repeated</text><text fill="#000000" font-family="sans-serif" font-size="13" lengthAdjust="spacing" textLength="325" x="64.78" y="599.5498">proposedCombination.colors at least one != Color.values</text></g><!--link error to last--><g id="link_error_last"><path d="M116.06,772.36 C123.38,813.95 137.1599,892.2908 144.4699,933.8208 " fill="none" id="error-to-last" style="stroke:#181818;stroke-width:1.0;"/><polygon fill="#181818" points="145.51,939.73,147.8893,930.1729,144.6432,934.8057,140.0104,931.5597,145.51,939.73" style="stroke:#181818;stroke-width:1.0;"/><text fill="#000000" font-family="sans-serif" font-size="13" lengthAdjust="spacing" textLength="116" x="126.78" y="819.4951">System shows error</text></g><!--link ShowBoard to is_finished--><g id="link_ShowBoard_is_finished"><path d="M436.44,692.27 C434.67,724.36 431.9612,773.5191 430.6912,796.4891 " fill="none" id="ShowBoard-to-is_finished" style="stroke:#181818;stroke-width:1.0;"/><polygon fill="#181818" points="430.36,802.48,434.8507,793.7145,430.636,797.4876,426.8629,793.2729,430.36,802.48" style="stroke:#181818;stroke-width:1.0;"/></g><!--link is_finished to is_winner--><g id="link_is_finished_is_winner"><path d="M429.78,826.2 C429.78,853.81 429.78,918.92 429.78,946.67 " fill="none" id="is_finished-to-is_winner" style="stroke:#181818;stroke-width:1.0;"/><polygon fill="#181818" points="429.78,952.67,433.78,943.67,429.78,947.67,425.78,943.67,429.78,952.67" style="stroke:#181818;stroke-width:1.0;"/><text fill="#000000" font-family="sans-serif" font-size="13" lengthAdjust="spacing" textLength="52" x="458.78" y="870.4951">[finished]</text><path d="M434.78,879.3516 L434.78,905.3516 L534.78,905.3516 L534.78,889.3516 L524.78,879.3516 L434.78,879.3516 " fill="#FEFFDD" style="stroke:#181818;stroke-width:0.5;"/><path d="M524.78,879.3516 L524.78,889.3516 L534.78,889.3516 L524.78,879.3516 " fill="#FEFFDD" style="stroke:#181818;stroke-width:0.5;"/><text fill="#000000" font-family="sans-serif" font-size="13" lengthAdjust="spacing" textLength="79" x="440.78" y="897.8467">winner || loser</text></g><!--link is_winner to winner--><g id="link_is_winner_winner"><path d="M427.87,975.65 C422.95,1000.58 410.8539,1061.834 403.6839,1098.094 " fill="none" id="is_winner-to-winner" style="stroke:#181818;stroke-width:1.0;"/><polygon fill="#181818" points="402.52,1103.98,408.1899,1095.9269,403.4899,1099.075,400.3418,1094.375,402.52,1103.98" style="stroke:#181818;stroke-width:1.0;"/><text fill="#000000" font-family="sans-serif" font-size="13" lengthAdjust="spacing" textLength="45" x="459.28" y="1034.4951">[winner]</text><path d="M422.78,1043.3516 L422.78,1069.3516 L540.78,1069.3516 L540.78,1053.3516 L530.78,1043.3516 L422.78,1043.3516 " fill="#FEFFDD" style="stroke:#181818;stroke-width:0.5;"/><path d="M530.78,1043.3516 L530.78,1053.3516 L540.78,1053.3516 L530.78,1043.3516 " fill="#FEFFDD" style="stroke:#181818;stroke-width:0.5;"/><text fill="#000000" font-family="sans-serif" font-size="13" lengthAdjust="spacing" textLength="97" x="428.78" y="1061.8467">result.blacks = 4</text></g><!--link is_winner to looser--><g id="link_is_winner_looser"><path d="M439.29,967.55 C462.19,971.76 520.89,985.5 553.78,1020 C575.92,1043.23 585.236,1073.724 589.986,1097.744 " fill="none" id="is_winner-to-looser" style="stroke:#181818;stroke-width:1.0;"/><polygon fill="#181818" points="591.15,1103.63,593.3281,1094.025,590.18,1098.725,585.48,1095.577,591.15,1103.63" style="stroke:#181818;stroke-width:1.0;"/><text fill="#000000" font-family="sans-serif" font-size="13" lengthAdjust="spacing" textLength="36" x="681.28" y="1034.4951">[loser]</text><path d="M586.78,1043.3516 L586.78,1069.3516 L811.78,1069.3516 L811.78,1053.3516 L801.78,1043.3516 L586.78,1043.3516 " fill="#FEFFDD" style="stroke:#181818;stroke-width:0.5;"/><path d="M801.78,1043.3516 L801.78,1053.3516 L811.78,1053.3516 L801.78,1043.3516 " fill="#FEFFDD" style="stroke:#181818;stroke-width:0.5;"/><text fill="#000000" font-family="sans-serif" font-size="13" lengthAdjust="spacing" textLength="204" x="592.78" y="1061.8467">result.blacks &lt; 4 &amp;&amp; attempts = 10</text></g><!--link is_finished to last--><g id="link_is_finished_last"><path d="M422.58,818.83 C387.74,837.37 241.2067,915.3514 180.3967,947.7114 " fill="none" id="is_finished-to-last" style="stroke:#181818;stroke-width:1.0;"/><polygon fill="#181818" points="175.1,950.53,184.9242,949.8332,179.5139,948.1811,181.166,942.7709,175.1,950.53" style="stroke:#181818;stroke-width:1.0;"/></g><!--link winner to finished--><g id="link_winner_finished"><path d="M379.82,1154.01 C374.17,1162.95 368.66,1173.49 365.78,1184 C358.47,1210.65 360.0819,1236.6661 363.2819,1258.0461 " fill="none" id="winner-to-finished" style="stroke:#181818;stroke-width:1.0;"/><polygon fill="#181818" points="364.17,1263.98,366.7937,1254.4871,363.4299,1259.0351,358.8819,1255.6712,364.17,1263.98" style="stroke:#181818;stroke-width:1.0;"/><text fill="#000000" font-family="sans-serif" font-size="13" lengthAdjust="spacing" textLength="184" x="366.78" y="1214.4951">System shows winner message</text></g><!--link looser to finished--><g id="link_looser_finished"><path d="M591.99,1154.07 C588,1177.66 578.43,1213.05 555.78,1234 C510.14,1276.23 439.4926,1285.3526 399.9926,1287.3126 " fill="none" id="looser-to-finished" style="stroke:#181818;stroke-width:1.0;"/><polygon fill="#181818" points="394,1287.61,403.1872,1291.1591,398.9939,1287.3622,402.7907,1283.1689,394,1287.61" style="stroke:#181818;stroke-width:1.0;"/><text fill="#000000" font-family="sans-serif" font-size="13" lengthAdjust="spacing" textLength="175" x="584.78" y="1214.4951">System shows loser message</text></g><!--link last to IN_GAME_AGAIN--><g id="link_last_IN_GAME_AGAIN"><path d="M150.57,990.09 C152.1,1036.36 155.2426,1131.1832 156.7726,1177.6532 " fill="none" id="last-to-IN_GAME_AGAIN" style="stroke:#181818;stroke-width:1.0;"/><polygon fill="#181818" points="156.97,1183.65,160.6717,1174.5232,156.8055,1178.6527,152.676,1174.7865,156.97,1183.65" style="stroke:#181818;stroke-width:1.0;"/><text fill="#000000" font-family="sans-serif" font-size="13" lengthAdjust="spacing" textLength="235" x="154.78" y="1052.4951">System allows to propose a combination</text></g><!--link IN_GAME_AGAIN to *end*--><g id="link_IN_GAME_AGAIN_*end*"><path d="M163.96,1234.03 C180,1296.32 220.9148,1455.2593 231.7348,1497.3093 " fill="none" id="IN_GAME_AGAIN-to-*end*" style="stroke:#181818;stroke-width:1.0;"/><polygon fill="#181818" points="233.23,1503.12,234.8611,1493.4071,231.984,1498.2777,227.1134,1495.4007,233.23,1503.12" style="stroke:#181818;stroke-width:1.0;"/></g><!--link finished to OUT_GAME--><g id="link_finished_OUT_GAME"><path d="M364.54,1314.29 C360.64,1336.61 355.9315,1363.5793 352.0415,1385.8693 " fill="none" id="finished-to-OUT_GAME" style="stroke:#181818;stroke-width:1.0;"/><polygon fill="#181818" points="351.01,1391.78,356.4977,1383.6017,351.8696,1386.8544,348.6168,1382.2263,351.01,1391.78" style="stroke:#181818;stroke-width:1.0;"/><text fill="#000000" font-family="sans-serif" font-size="13" lengthAdjust="spacing" textLength="221" x="359.78" y="1358.4951">System allows to resume a new game</text></g><!--link OUT_GAME to *end*--><g id="link_OUT_GAME_*end*"><path d="M318.48,1442.22 C293.82,1463.33 264.1882,1488.6884 248.6382,1501.9984 " fill="none" id="OUT_GAME-to-*end*" style="stroke:#181818;stroke-width:1.0;"/><polygon fill="#181818" points="244.08,1505.9,253.5184,1503.0864,247.8785,1502.6487,248.3163,1497.0088,244.08,1505.9" style="stroke:#181818;stroke-width:1.0;"/></g><!--SRC=[bLDDQnin4BthLqnzo24Gqq9EnZMueOGScXRId48mykxK5j5gN4ck2UJ7HxEhZzsDdT3JhjxCl1azlN5UUeIRszNryiTtuTgJnRzxT1vha0ucC8cmr9eEOn2j9Jk4xhPq-4RITfbyWZKVK_oWZC5HZIPoO-oFCifjnmsrT7w8ABUgo5giFCpdrPPKXOj5YMMQOy4uovlGp_lVVKMYFglbzVBcjkqUaOaG3-UFS76no1h6Rujb9MVmIyldq2aY3dQMTk7E8A6YPgsCz8gCAD9pULHy1dVF0MjAiKpbzQ0wlH3N5bLoRsMyfNfVuKc2dfJCaLzo76XVVGOFoYJq6DsZC1J48mDQcISGaBEkIjAq8atMJJMQZT_2fwzm-MuYI0yQsGHasAex30zK_qT9w735yFIVr45DWQO6dbDqLkRhiSUow2w8uBeRYsBjA74ob-WRBSOwRmMLKc2eHnWvkk_b9VW_sB-CKfp9N9ce-tb3Oz7jjP-kjQoU7B209uYwBGj4RRiFUEPm2MTdGRiWmiupxvVF0-B1VLaoqMkLWYCPOqQ3piaDYhZsxnIqavPyViJUidKBcKjQ_plmT6AxXclCF65vnU0UQV6FSB8y3LCQFC16DYXISg9w1G00]--></g></svg>