<?xml version="1.0" encoding="us-ascii" standalone="no"?><svg xmlns="http://www.w3.org/2000/svg" xmlns:xlink="http://www.w3.org/1999/xlink" contentStyleType="text/css" height="388px" preserveAspectRatio="none" style="width:335px;height:388px;background:#FFFFFF;" version="1.1" viewBox="0 0 335 388" width="335px" zoomAndPan="magnify"><defs/><g><g id="attempts_shown"><rect fill="#F1F1F1" height="50" rx="12.5" ry="12.5" style="stroke:#181818;stroke-width:0.5;" width="50" x="7" y="104"/><line style="stroke:#181818;stroke-width:0.5;" x1="7" x2="57" y1="131.6094" y2="131.6094"/><text fill="#000000" font-family="sans-serif" font-size="14" lengthAdjust="spacing" textLength="4" x="30" y="123.5332">&#160;</text></g><g id="combinations_shown"><rect fill="#F1F1F1" height="50" rx="12.5" ry="12.5" style="stroke:#181818;stroke-width:0.5;" width="50" x="7" y="232"/><line style="stroke:#181818;stroke-width:0.5;" x1="7" x2="57" y1="259.6094" y2="259.6094"/><text fill="#000000" font-family="sans-serif" font-size="14" lengthAdjust="spacing" textLength="4" x="30" y="251.5332">&#160;</text></g><ellipse cx="32" cy="16" fill="#222222" rx="10" ry="10" style="stroke:#222222;stroke-width:1.0;"/><ellipse cx="32" cy="371" fill="none" rx="11" ry="11" style="stroke:#222222;stroke-width:1.0;"/><ellipse cx="32" cy="371" fill="#222222" rx="6" ry="6" style="stroke:#222222;stroke-width:1.0;"/><!--link *start* to attempts_shown--><g id="link_*start*_attempts_shown"><path d="M32,26.08 C32,42.86 32,73.22 32,97.65 " fill="none" id="*start*-to-attempts_shown" style="stroke:#181818;stroke-width:1.0;"/><polygon fill="#181818" points="32,103.65,36,94.65,32,98.65,28,94.65,32,103.65" style="stroke:#181818;stroke-width:1.0;"/><text fill="#000000" font-family="sans-serif" font-size="13" lengthAdjust="spacing" textLength="141" x="33" y="70.4951">System shows attempts</text></g><!--link attempts_shown to combinations_shown--><g id="link_attempts_shown_combinations_shown"><path d="M32,154.29 C32,176.61 32,203.49 32,225.78 " fill="none" id="attempts_shown-to-combinations_shown" style="stroke:#181818;stroke-width:1.0;"/><polygon fill="#181818" points="32,231.78,36,222.78,32,226.78,28,222.78,32,231.78" style="stroke:#181818;stroke-width:1.0;"/><text fill="#000000" font-family="sans-serif" font-size="13" lengthAdjust="spacing" textLength="252" x="33" y="198.4951">System shows secret combination as "****"</text></g><!--link combinations_shown to *end*--><g id="link_combinations_shown_*end*"><path d="M32,282.03 C32,306.19 32,336.31 32,353.79 " fill="none" id="combinations_shown-to-*end*" style="stroke:#181818;stroke-width:1.0;"/><polygon fill="#181818" points="32,359.79,36,350.79,32,354.79,28,350.79,32,359.79" style="stroke:#181818;stroke-width:1.0;"/><text fill="#000000" font-family="sans-serif" font-size="13" lengthAdjust="spacing" textLength="294" x="33" y="326.4951">System shows proposed combinations with results</text></g><!--SRC=[ROwn2iCm34HtVuNm6CWFTEXFT2obEAaWXiOoFeNGlu-TeQHAjKcdktVGe4n1bUUiU6AIDL40UV8EkpRAFCGKD4eo-hrxKDzVZVj2jm_gWTg6h-WCendFqSOC7WlhyMzdTtMy-rEiXTPM9YKNoG9-_V1eZJfHOInlnGO0]--></g></svg>