<?xml version="1.0" encoding="us-ascii" standalone="no"?><svg xmlns="http://www.w3.org/2000/svg" xmlns:xlink="http://www.w3.org/1999/xlink" contentStyleType="text/css" height="700px" preserveAspectRatio="none" style="width:636px;height:700px;background:#FFFFFF;" version="1.1" viewBox="0 0 636 700" width="636px" zoomAndPan="magnify"><defs/><g><g id="elem_languageChoice"><polygon fill="#F1F1F1" points="28,118.5,40,130.5,28,142.5,16,130.5,28,118.5" style="stroke:#181818;stroke-width:0.5;"/></g><g id="WITH_JavaScript"><rect fill="#F1F1F1" height="52.7031" rx="12.5" ry="12.5" style="stroke:#181818;stroke-width:0.5;" width="134" x="203" y="104"/><line style="stroke:#181818;stroke-width:0.5;" x1="203" x2="337" y1="131.6094" y2="131.6094"/><text fill="#000000" font-family="sans-serif" font-size="14" lengthAdjust="spacing" textLength="4" x="268" y="123.5332">&#160;</text><text fill="#000000" font-family="sans-serif" font-size="12" lengthAdjust="spacing" textLength="114" x="208" y="149.0664">init JS developement</text></g><g id="T1"><rect fill="#F1F1F1" height="52.7031" rx="12.5" ry="12.5" style="stroke:#181818;stroke-width:0.5;" width="100" x="220" y="279"/><line style="stroke:#181818;stroke-width:0.5;" x1="220" x2="320" y1="306.6094" y2="306.6094"/><text fill="#000000" font-family="sans-serif" font-size="14" lengthAdjust="spacing" textLength="64" x="236" y="298.5332">T1_DONE</text><text fill="#000000" font-family="sans-serif" font-size="12" lengthAdjust="spacing" textLength="80" x="225" y="324.0664">branch js_v0.0</text></g><g id="T2"><rect fill="#F1F1F1" height="52.7031" rx="12.5" ry="12.5" style="stroke:#181818;stroke-width:0.5;" width="100" x="220" y="506"/><line style="stroke:#181818;stroke-width:0.5;" x1="220" x2="320" y1="533.6094" y2="533.6094"/><text fill="#000000" font-family="sans-serif" font-size="14" lengthAdjust="spacing" textLength="64" x="236" y="525.5332">T2_DONE</text><text fill="#000000" font-family="sans-serif" font-size="12" lengthAdjust="spacing" textLength="80" x="225" y="551.0664">branch js_v0.1</text></g><ellipse cx="28" cy="16" fill="#222222" rx="10" ry="10" style="stroke:#222222;stroke-width:1.0;"/><ellipse cx="270" cy="683" fill="none" rx="11" ry="11" style="stroke:#222222;stroke-width:1.0;"/><ellipse cx="270" cy="683" fill="#222222" rx="6" ry="6" style="stroke:#222222;stroke-width:1.0;"/><g id="elem_GMN13"><path d="M355.5,235 L355.5,301.5 L320.02,305.5 L355.5,309.5 L355.5,375.8125 A0,0 0 0 0 355.5,375.8125 L578.5,375.8125 A0,0 0 0 0 578.5,375.8125 L578.5,245 L568.5,235 L355.5,235 A0,0 0 0 0 355.5,235 " fill="#FEFFDD" style="stroke:#181818;stroke-width:0.5;"/><path d="M568.5,235 L568.5,245 L578.5,245 L568.5,235 " fill="#FEFFDD" style="stroke:#181818;stroke-width:0.5;"/><text fill="#000000" font-family="sans-serif" font-size="13" lengthAdjust="spacing" textLength="48" x="361.5" y="253.4951">Version:</text><text fill="#000000" font-family="sans-serif" font-size="13" lengthAdjust="spacing" textLength="33" x="377.5" y="269.8467">Basic</text><text fill="#000000" font-family="sans-serif" font-size="13" lengthAdjust="spacing" textLength="137" x="361.5" y="286.1982">Mathematic Fundament</text><text fill="#000000" font-family="sans-serif" font-size="13" lengthAdjust="spacing" textLength="121" x="377.5" y="302.5498">Paradigm: Imperative</text><text fill="#000000" font-family="sans-serif" font-size="13" lengthAdjust="spacing" textLength="140" x="361.5" y="318.9014">Organization Paradigm :</text><text fill="#000000" font-family="sans-serif" font-size="13" lengthAdjust="spacing" textLength="182" x="377.5" y="335.2529">Process Oriented Programming</text><text fill="#000000" font-family="sans-serif" font-size="13" lengthAdjust="spacing" textLength="38" x="361.5" y="351.6045">Notes:</text><text fill="#000000" font-family="sans-serif" font-size="13" lengthAdjust="spacing" textLength="16" x="361.5" y="367.9561">&#160;&#160;&#160;&#160;</text><text fill="#000000" font-family="sans-serif" font-size="13" font-weight="bold" lengthAdjust="spacing" textLength="164" x="377.5" y="367.9561">use objects is not allowed</text></g><g id="elem_GMN16"><path d="M355,454 L355,528.5 L320.3,532.5 L355,536.5 L355,611.1641 A0,0 0 0 0 355,611.1641 L629,611.1641 A0,0 0 0 0 629,611.1641 L629,464 L619,454 L355,454 A0,0 0 0 0 355,454 " fill="#FEFFDD" style="stroke:#181818;stroke-width:0.5;"/><path d="M619,454 L619,464 L629,464 L619,454 " fill="#FEFFDD" style="stroke:#181818;stroke-width:0.5;"/><text fill="#000000" font-family="sans-serif" font-size="13" lengthAdjust="spacing" textLength="48" x="361" y="472.4951">Version:</text><text fill="#000000" font-family="sans-serif" font-size="13" lengthAdjust="spacing" textLength="33" x="377" y="488.8467">Basic</text><text fill="#000000" font-family="sans-serif" font-size="13" lengthAdjust="spacing" textLength="137" x="361" y="505.1982">Mathematic Fundament</text><text fill="#000000" font-family="sans-serif" font-size="13" lengthAdjust="spacing" textLength="121" x="377" y="521.5498">Paradigm: Imperative</text><text fill="#000000" font-family="sans-serif" font-size="13" lengthAdjust="spacing" textLength="140" x="361" y="537.9014">Organization Paradigm :</text><text fill="#000000" font-family="sans-serif" font-size="13" lengthAdjust="spacing" textLength="182" x="377" y="554.2529">Process Oriented Programming</text><text fill="#000000" font-family="sans-serif" font-size="13" lengthAdjust="spacing" textLength="38" x="361" y="570.6045">Notes:</text><text fill="#000000" font-family="sans-serif" font-size="13" lengthAdjust="spacing" textLength="171" x="377" y="586.9561">objects can be used, but only</text><text fill="#000000" font-family="sans-serif" font-size="13" font-weight="bold" lengthAdjust="spacing" textLength="58" x="552" y="586.9561">as structs</text><text fill="#000000" font-family="sans-serif" font-size="13" lengthAdjust="spacing" textLength="4" x="610" y="586.9561">&#160;</text><text fill="#000000" font-family="sans-serif" font-size="13" lengthAdjust="spacing" textLength="111" x="393" y="603.3076">-&gt; without methods</text></g><!--link *start* to languageChoice--><g id="link_*start*_languageChoice"><path d="M28,26.21 C28,46.67 28,89.89 28,112.19 " fill="none" id="*start*-to-languageChoice" style="stroke:#181818;stroke-width:1.0;"/><polygon fill="#181818" points="28,118.19,32,109.19,28,113.19,24,109.19,28,118.19" style="stroke:#181818;stroke-width:1.0;"/><text fill="#000000" font-family="sans-serif" font-size="13" lengthAdjust="spacing" textLength="98" x="29" y="70.4951">chooseLanguage</text></g><!--link languageChoice to WITH_JavaScript--><g id="link_languageChoice_WITH_JavaScript"><path d="M40,130.5 C69.28,130.5 140.14,130.5 196.99,130.5 " fill="none" id="languageChoice-to-WITH_JavaScript" style="stroke:#181818;stroke-width:1.0;"/><polygon fill="#181818" points="202.99,130.5,193.99,126.5,197.99,130.5,193.99,134.5,202.99,130.5" style="stroke:#181818;stroke-width:1.0;"/><text fill="#000000" font-family="sans-serif" font-size="13" lengthAdjust="spacing" textLength="126" x="58.5" y="123.9951">[isJavascriptChoosed]</text></g><!--link WITH_JavaScript to T1--><g id="link_WITH_JavaScript_T1"><path d="M270,157.03 C270,189.74 270,240.11 270,272.87 " fill="none" id="WITH_JavaScript-to-T1" style="stroke:#181818;stroke-width:1.0;"/><polygon fill="#181818" points="270,278.87,274,269.87,270,273.87,266,269.87,270,278.87" style="stroke:#181818;stroke-width:1.0;"/><text fill="#000000" font-family="sans-serif" font-size="13" lengthAdjust="spacing" textLength="49" x="271" y="201.4951">doTask1</text></g><!--link T1 to T2--><g id="link_T1_T2"><path d="M270,332.31 C270,375.71 270,456.79 270,499.99 " fill="none" id="T1-to-T2" style="stroke:#181818;stroke-width:1.0;"/><polygon fill="#181818" points="270,505.99,274,496.99,270,500.99,266,496.99,270,505.99" style="stroke:#181818;stroke-width:1.0;"/><text fill="#000000" font-family="sans-serif" font-size="13" lengthAdjust="spacing" textLength="49" x="271" y="420.4951">doTask2</text></g><!--link T2 to *end*--><g id="link_T2_*end*"><path d="M270,559.03 C270,592.2 270,642.6 270,665.68 " fill="none" id="T2-to-*end*" style="stroke:#181818;stroke-width:1.0;"/><polygon fill="#181818" points="270,671.68,274,662.68,270,666.68,266,662.68,270,671.68" style="stroke:#181818;stroke-width:1.0;"/></g><!--SRC=[nPB1JiCm38RlUGgB8sB0Ugoc7XWWc80XCS5XGfERc3QZJQOuBOAdnmrZ4aESSGwjdS_E_wVbY96WGLTrMD6qzbOJJ2OwlHI5Kfo0f-l5rMg6FJxeO3SHaE50LWxMsGYp1p3KK-Ctr9AB0DkknJY1Y_7gV7vtaVWoeDCrh7dLdnwVVdFP5vVzmOsLMXu-msXKx2lDGPHwffjjMUtjZuAjwYXz-mPoM5eUSaxvD4qnpsgV6yuK6paOlq1-7Ij9KYtRrJ8boL0JZKevBuRIgU1Vf5KzKc3hNGuA9CwGhLQt66jgCLeDbvqpc6ujxTzZG6EhDeVhTaD1a9xKF5Jex8Satkq8s4wy3ruJCyo3bIbaXa8Li6sjgq3TYHpUafEow9Z0bslIaS4oY5Z0fl5lP2OdPQ78cK7_BnVP_xgG-67asu561oM1c397K7QYrJNlWqtvcpY6JfZ1rbVJ4FAHtcoilQ0joTFmpl8d]--></g></svg>