<?xml version="1.0" encoding="us-ascii" standalone="no"?><svg xmlns="http://www.w3.org/2000/svg" xmlns:xlink="http://www.w3.org/1999/xlink" contentStyleType="text/css" height="224px" preserveAspectRatio="none" style="width:317px;height:224px;background:#FFFFFF;" version="1.1" viewBox="0 0 317 224" width="317px" zoomAndPan="magnify"><defs/><g><g id="B&#225;sica"><rect fill="#F1F1F1" height="50" rx="12.5" ry="12.5" style="stroke:#181818;stroke-width:0.5;" width="54" x="7" y="86"/><line style="stroke:#181818;stroke-width:0.5;" x1="7" x2="61" y1="113.6094" y2="113.6094"/><text fill="#000000" font-family="sans-serif" font-size="14" lengthAdjust="spacing" textLength="34" x="17" y="105.5332">Basic</text></g><ellipse cx="34" cy="16" fill="#222222" rx="10" ry="10" style="stroke:#222222;stroke-width:1.0;"/><ellipse cx="34" cy="207" fill="none" rx="11" ry="11" style="stroke:#222222;stroke-width:1.0;"/><ellipse cx="34" cy="207" fill="#222222" rx="6" ry="6" style="stroke:#222222;stroke-width:1.0;"/><g id="elem_GMN7"><path d="M96,89.5 L96,107 L61.07,111 L96,115 L96,132.2031 A0,0 0 0 0 96,132.2031 L310,132.2031 A0,0 0 0 0 310,132.2031 L310,99.5 L300,89.5 L96,89.5 A0,0 0 0 0 96,89.5 " fill="#15D2F3" style="stroke:#181818;stroke-width:0.5;"/><path d="M300,89.5 L300,99.5 L310,99.5 L300,89.5 " fill="#15D2F3" style="stroke:#181818;stroke-width:0.5;"/><text fill="#000000" font-family="sans-serif" font-size="13" lengthAdjust="spacing" textLength="193" x="102" y="107.9951">Console interface and use cases:</text><text fill="#000000" font-family="sans-serif" font-size="13" lengthAdjust="spacing" textLength="151" x="102" y="124.3467">Start, Propose y Resume.</text></g><!--link *start* to B?sica--><g id="link_*start*_B&#225;sica"><path d="M34,26.26 C34,40.04 34,60.42 34,79.91 " fill="none" id="*start*-to-B&#225;sica" style="stroke:#181818;stroke-width:1.0;"/><polygon fill="#181818" points="34,85.91,38,76.91,34,80.91,30,76.91,34,85.91" style="stroke:#181818;stroke-width:1.0;"/></g><!--link B?sica to *end*--><g id="link_B&#225;sica_*end*"><path d="M34,136.21 C34,155.57 34,175.75 34,189.9 " fill="none" id="B&#225;sica-to-*end*" style="stroke:#181818;stroke-width:1.0;"/><polygon fill="#181818" points="34,195.9,38,186.9,34,190.9,30,186.9,34,195.9" style="stroke:#181818;stroke-width:1.0;"/></g><!--SRC=[FOon3W5H44Nx-OgRrOcL81g5OebQA4KnUMPvoNeZRzuMFiUt-353KCtDkUUE5Iw2gc6BeG8RckV38nCTXaVKzV8FllV3l2DAwiiSpvS2RNyQ1fFvUhgP4R3IPDe9OYgIMmu2JYVq9WXiOWjNzeLp6M6RzQRExzY9zLSPaxZv_ayl]--></g></svg>