<?xml version="1.0" encoding="us-ascii" standalone="no"?><svg xmlns="http://www.w3.org/2000/svg" xmlns:xlink="http://www.w3.org/1999/xlink" contentStyleType="text/css" height="866px" preserveAspectRatio="none" style="width:370px;height:866px;background:#FFFFFF;" version="1.1" viewBox="0 0 370 866" width="370px" zoomAndPan="magnify"><defs/><g><g id="B&#225;sica"><rect fill="#F1F1F1" height="50" rx="12.5" ry="12.5" style="stroke:#181818;stroke-width:0.5;" width="54" x="29" y="87"/><line style="stroke:#181818;stroke-width:0.5;" x1="29" x2="83" y1="114.6094" y2="114.6094"/><text fill="#000000" font-family="sans-serif" font-size="14" lengthAdjust="spacing" textLength="34" x="39" y="106.5332">Basic</text></g><g id="Gr&#225;ficos"><rect fill="#F1F1F1" height="50" rx="12.5" ry="12.5" style="stroke:#181818;stroke-width:0.5;" width="77" x="17.5" y="215"/><line style="stroke:#181818;stroke-width:0.5;" x1="17.5" x2="94.5" y1="242.6094" y2="242.6094"/><text fill="#000000" font-family="sans-serif" font-size="14" lengthAdjust="spacing" textLength="57" x="27.5" y="234.5332">Graphics</text></g><g id="UndoRedo"><rect fill="#F1F1F1" height="50" rx="12.5" ry="12.5" style="stroke:#181818;stroke-width:0.5;" width="87" x="12.5" y="343"/><line style="stroke:#181818;stroke-width:0.5;" x1="12.5" x2="99.5" y1="370.6094" y2="370.6094"/><text fill="#000000" font-family="sans-serif" font-size="14" lengthAdjust="spacing" textLength="67" x="22.5" y="362.5332">UndoRedo</text></g><g id="ClienteServidor"><rect fill="#F1F1F1" height="50" rx="12.5" ry="12.5" style="stroke:#181818;stroke-width:0.5;" width="98" x="7" y="471"/><line style="stroke:#181818;stroke-width:0.5;" x1="7" x2="105" y1="498.6094" y2="498.6094"/><text fill="#000000" font-family="sans-serif" font-size="14" lengthAdjust="spacing" textLength="78" x="17" y="490.5332">ClientServer</text></g><g id="Ficheros"><rect fill="#F1F1F1" height="50" rx="12.5" ry="12.5" style="stroke:#181818;stroke-width:0.5;" width="50" x="31" y="599"/><line style="stroke:#181818;stroke-width:0.5;" x1="31" x2="81" y1="626.6094" y2="626.6094"/><text fill="#000000" font-family="sans-serif" font-size="14" lengthAdjust="spacing" textLength="30" x="41" y="618.5332">Files</text></g><g id="BasesDatos"><rect fill="#F1F1F1" height="50" rx="12.5" ry="12.5" style="stroke:#181818;stroke-width:0.5;" width="82" x="15" y="727"/><line style="stroke:#181818;stroke-width:0.5;" x1="15" x2="97" y1="754.6094" y2="754.6094"/><text fill="#000000" font-family="sans-serif" font-size="14" lengthAdjust="spacing" textLength="62" x="25" y="746.5332">DataBase</text></g><ellipse cx="56" cy="16" fill="#222222" rx="10" ry="10" style="stroke:#222222;stroke-width:1.0;"/><ellipse cx="56" cy="849" fill="none" rx="11" ry="11" style="stroke:#222222;stroke-width:1.0;"/><ellipse cx="56" cy="849" fill="#222222" rx="6" ry="6" style="stroke:#222222;stroke-width:1.0;"/><g id="elem_GMN17"><path d="M118,90.5 L118,108 L83.07,112 L118,116 L118,133.2031 A0,0 0 0 0 118,133.2031 L332,133.2031 A0,0 0 0 0 332,133.2031 L332,100.5 L322,90.5 L118,90.5 A0,0 0 0 0 118,90.5 " fill="#15D2F3" style="stroke:#181818;stroke-width:0.5;"/><path d="M322,90.5 L322,100.5 L332,100.5 L322,90.5 " fill="#15D2F3" style="stroke:#181818;stroke-width:0.5;"/><text fill="#000000" font-family="sans-serif" font-size="13" lengthAdjust="spacing" textLength="193" x="124" y="108.9951">Console interface and use cases:</text><text fill="#000000" font-family="sans-serif" font-size="13" lengthAdjust="spacing" textLength="151" x="124" y="125.3467">Start, Propose y Resume.</text></g><g id="elem_GMN20"><path d="M130,227 L130,236 L94.7,240 L130,244 L130,253.3516 A0,0 0 0 0 130,253.3516 L294,253.3516 A0,0 0 0 0 294,253.3516 L294,237 L284,227 L130,227 A0,0 0 0 0 130,227 " fill="#15D2F3" style="stroke:#181818;stroke-width:0.5;"/><path d="M284,227 L284,237 L294,237 L284,227 " fill="#15D2F3" style="stroke:#181818;stroke-width:0.5;"/><text fill="#000000" font-family="sans-serif" font-size="13" lengthAdjust="spacing" textLength="143" x="136" y="245.4951">Adding graphic interface.</text></g><g id="elem_GMN23"><path d="M134.5,355 L134.5,364 L99.8,368 L134.5,372 L134.5,381.3516 A0,0 0 0 0 134.5,381.3516 L333.5,381.3516 A0,0 0 0 0 333.5,381.3516 L333.5,365 L323.5,355 L134.5,355 A0,0 0 0 0 134.5,355 " fill="#15D2F3" style="stroke:#181818;stroke-width:0.5;"/><path d="M323.5,355 L323.5,365 L333.5,365 L323.5,355 " fill="#15D2F3" style="stroke:#181818;stroke-width:0.5;"/><text fill="#000000" font-family="sans-serif" font-size="13" lengthAdjust="spacing" textLength="178" x="140.5" y="373.4951">Adding undo/redo functionality.</text></g><g id="elem_GMN26"><path d="M140,483 L140,492 L105.14,496 L140,500 L140,509.3516 A0,0 0 0 0 140,509.3516 L342,509.3516 A0,0 0 0 0 342,509.3516 L342,493 L332,483 L140,483 A0,0 0 0 0 140,483 " fill="#15D2F3" style="stroke:#181818;stroke-width:0.5;"/><path d="M332,483 L332,493 L342,493 L332,483 " fill="#15D2F3" style="stroke:#181818;stroke-width:0.5;"/><text fill="#000000" font-family="sans-serif" font-size="13" lengthAdjust="spacing" textLength="181" x="146" y="501.4951">Adding client/server distributed.</text></g><g id="elem_GMN29"><path d="M116,611 L116,620 L81.13,624 L116,628 L116,637.3516 A0,0 0 0 0 116,637.3516 L306,637.3516 A0,0 0 0 0 306,637.3516 L306,621 L296,611 L116,611 A0,0 0 0 0 116,611 " fill="#15D2F3" style="stroke:#181818;stroke-width:0.5;"/><path d="M296,611 L296,621 L306,621 L296,611 " fill="#15D2F3" style="stroke:#181818;stroke-width:0.5;"/><text fill="#000000" font-family="sans-serif" font-size="13" lengthAdjust="spacing" textLength="169" x="122" y="629.4951">Adding persistence with files.</text></g><g id="elem_GMN32"><path d="M132.5,739 L132.5,748 L97.25,752 L132.5,756 L132.5,765.3516 A0,0 0 0 0 132.5,765.3516 L363.5,765.3516 A0,0 0 0 0 363.5,765.3516 L363.5,749 L353.5,739 L132.5,739 A0,0 0 0 0 132.5,739 " fill="#15D2F3" style="stroke:#181818;stroke-width:0.5;"/><path d="M353.5,739 L353.5,749 L363.5,749 L353.5,739 " fill="#15D2F3" style="stroke:#181818;stroke-width:0.5;"/><text fill="#000000" font-family="sans-serif" font-size="13" lengthAdjust="spacing" textLength="210" x="138.5" y="757.4951">Adapting persistence with database.</text></g><!--link *start* to B?sica--><g id="link_*start*_B&#225;sica"><path d="M56,26.01 C56,39.89 56,60.97 56,80.84 " fill="none" id="*start*-to-B&#225;sica" style="stroke:#181818;stroke-width:1.0;"/><polygon fill="#181818" points="56,86.84,60,77.84,56,81.84,52,77.84,56,86.84" style="stroke:#181818;stroke-width:1.0;"/></g><!--link B?sica to Gr?ficos--><g id="link_B&#225;sica_Gr&#225;ficos"><path d="M56,137.29 C56,159.61 56,186.49 56,208.78 " fill="none" id="B&#225;sica-to-Gr&#225;ficos" style="stroke:#181818;stroke-width:1.0;"/><polygon fill="#181818" points="56,214.78,60,205.78,56,209.78,52,205.78,56,214.78" style="stroke:#181818;stroke-width:1.0;"/><text fill="#000000" font-family="sans-serif" font-size="13" lengthAdjust="spacing" textLength="118" x="57" y="181.4951">Maitenance adaptive</text></g><!--link Gr?ficos to UndoRedo--><g id="link_Gr&#225;ficos_UndoRedo"><path d="M56,265.29 C56,287.61 56,314.49 56,336.78 " fill="none" id="Gr&#225;ficos-to-UndoRedo" style="stroke:#181818;stroke-width:1.0;"/><polygon fill="#181818" points="56,342.78,60,333.78,56,337.78,52,333.78,56,342.78" style="stroke:#181818;stroke-width:1.0;"/><text fill="#000000" font-family="sans-serif" font-size="13" lengthAdjust="spacing" textLength="125" x="57" y="309.4951">Maitenance perfective</text></g><!--link UndoRedo to ClienteServidor--><g id="link_UndoRedo_ClienteServidor"><path d="M56,393.29 C56,415.61 56,442.49 56,464.78 " fill="none" id="UndoRedo-to-ClienteServidor" style="stroke:#181818;stroke-width:1.0;"/><polygon fill="#181818" points="56,470.78,60,461.78,56,465.78,52,461.78,56,470.78" style="stroke:#181818;stroke-width:1.0;"/><text fill="#000000" font-family="sans-serif" font-size="13" lengthAdjust="spacing" textLength="129" x="57" y="437.4951">Maitenance adaptativo</text></g><!--link ClienteServidor to Ficheros--><g id="link_ClienteServidor_Ficheros"><path d="M56,521.29 C56,543.61 56,570.49 56,592.78 " fill="none" id="ClienteServidor-to-Ficheros" style="stroke:#181818;stroke-width:1.0;"/><polygon fill="#181818" points="56,598.78,60,589.78,56,593.78,52,589.78,56,598.78" style="stroke:#181818;stroke-width:1.0;"/><text fill="#000000" font-family="sans-serif" font-size="13" lengthAdjust="spacing" textLength="118" x="57" y="565.4951">Maitenance adaptive</text></g><!--link Ficheros to BasesDatos--><g id="link_Ficheros_BasesDatos"><path d="M56,649.29 C56,671.61 56,698.49 56,720.78 " fill="none" id="Ficheros-to-BasesDatos" style="stroke:#181818;stroke-width:1.0;"/><polygon fill="#181818" points="56,726.78,60,717.78,56,721.78,52,717.78,56,726.78" style="stroke:#181818;stroke-width:1.0;"/><text fill="#000000" font-family="sans-serif" font-size="13" lengthAdjust="spacing" textLength="118" x="57" y="693.4951">Maitenance adaptive</text></g><!--link BasesDatos to *end*--><g id="link_BasesDatos_*end*"><path d="M56,777.46 C56,797.04 56,817.49 56,831.8 " fill="none" id="BasesDatos-to-*end*" style="stroke:#181818;stroke-width:1.0;"/><polygon fill="#181818" points="56,837.8,60,828.8,56,832.8,52,828.8,56,837.8" style="stroke:#181818;stroke-width:1.0;"/></g><!--SRC=[TPBFRi8m3CRlUGgBtQOnj4sxS9WqG72QD85scdO8ZKijTKcLf4my3i_2Yyr9wH-rj9T6_Zx_ujXsNdg4oK8wIYOW7ImkPpvAuIfXOsMHKUAYjh6NSqg9SLVrIokpHMLgyp8dr7w7zeWs9bG1315InefTvLjJZXLnJKc6be5NPIMzv5gmAeKFZYCiY-_x7vXEtvhohlyOQygQVqZogALE4AIIXQSZYaQDthhahhL0cs8IpRKSlRtg1tJ9AKRqN36pVjRDWcgnUa_pnflULevkxeBWJnlkbQL3vi6aTKlWxkbrzRn-4G1Bevt94OZhigaCGAsWT0X9uCtPmlss_W4-hIaCnq-mHLV-ugD0TWP-_vQsZUqzxqgHFi2Xsf7skd5Aqzy1f6HbPeEKbfg7ORJCoP_6KVs-3uX9DCnSN4TGvBobVUbHZJERqGnWl2EE2HYcyqS-WpJiy3YfCxWkAupr5atntkyvfGly1m00]--></g></svg>